<?xml version="1.0" encoding="utf-8"?>
<!-- Generator: Adobe Illustrator 25.0.1, SVG Export Plug-In . SVG Version: 6.00 Build 0)  -->
<svg version="1.1" xmlns="http://www.w3.org/2000/svg" xmlns:xlink="http://www.w3.org/1999/xlink" x="0px" y="0px"
	 viewBox="0 0 500 500" style="enable-background:new 0 0 500 500;" xml:space="preserve">
<style type="text/css">
	.st0{fill:#EBEBEB;}
	.st1{fill:#E0E0E0;}
	.st2{fill:#F0F0F0;}
	.st3{display:none;}
	.st4{display:inline;}
	.st5{fill:#407BFF;}
	.st6{opacity:0.9;fill:#FFFFFF;}
	.st7{fill:#F5F5F5;}
	.st8{opacity:0.8;}
	.st9{fill:#FFFFFF;}
	.st10{opacity:0.3;}
	.st11{fill:#263238;}
	.st12{opacity:0.5;fill:#FFFFFF;}
	.st13{opacity:0.5;}
	.st14{opacity:0.7;fill:#FFFFFF;}
	.st15{opacity:0.3;fill:#FFFFFF;}
	.st16{opacity:0.9;}
	.st17{font-family:'MyriadPro-Regular';}
	.st18{font-size:13.648px;}
	.st19{fill:#FFB573;}
	.st20{opacity:0.2;}
	.st21{opacity:0.6;}
	.st22{opacity:0.4;fill:#FFFFFF;}
	.st23{opacity:0.8;fill:#FFFFFF;}
	.st24{fill:#ED893E;}
	.st25{opacity:0.4;}
	.st26{fill:#FFC3BD;}
	.st27{fill:#ED847E;}
	.st28{fill:#B55B52;}
	.st29{fill:#A02724;}
	.st30{fill:#7F3E3B;}
	.st31{opacity:0.2;fill:#FFFFFF;}
	.st32{fill:#630F0F;}
	.st33{opacity:0.7;}
</style>
<g id="Background_Complete">
	<rect x="416.78" y="398.49" class="st0" width="33.12" height="0.25"/>
	<rect x="322.53" y="401.21" class="st0" width="8.69" height="0.25"/>
	<rect x="396.59" y="389.21" class="st0" width="19.19" height="0.25"/>
	<rect x="52.46" y="390.89" class="st0" width="43.19" height="0.25"/>
	<rect x="104.56" y="390.89" class="st0" width="6.33" height="0.25"/>
	<rect x="131.47" y="395.11" class="st0" width="93.68" height="0.25"/>
	<rect y="382.4" class="st0" width="500" height="0.25"/>
	<g>
		<path class="st1" d="M434.89,337.78c0,0,1.71,31.72-3.27,41.75c-0.68,1.38,0.28,2.99,1.81,2.99h11.4c1.53,0,2.52-1.6,1.84-2.97
			c-2.25-4.51-5.47-15.55-5.47-41.78H434.89z"/>
		<path class="st2" d="M435.68,356.81c-6.39-0.58-20.51-8.42-10.25-23.54c0,0-7.36-16.71,5.78-24.32c0,0-11.31-13.66,3.42-25.36
			c0,0-3.94-14.59,4.21-15.38c8.15-0.79,6.31,27.63,6.31,27.63s16.83,17.5,1.58,29.9c0,0,20.46,17.18,1.84,28.36
			C445.74,355.8,438.96,357.11,435.68,356.81z"/>
		<path class="st1" d="M436.88,344.31c-0.53-0.27-0.95-0.72-1.19-1.27c-0.74-1.74-2.81-5.71-6.58-6.64
			c-4.87-1.21,2.76-5.72,7.69,0.42s5.8-3.79,10.1-2.37c3.64,1.2-4.03,5.58-6.81,9.18C439.33,344.6,437.97,344.87,436.88,344.31
			L436.88,344.31z"/>
		<path class="st1" d="M437.26,319.1c-0.28-0.15-0.51-0.38-0.63-0.67c-0.39-0.92-1.49-3.03-3.5-3.53c-2.59-0.64,1.47-3.04,4.09,0.22
			c2.62,3.26,3.08-2.01,5.36-1.26c1.94,0.64-2.14,2.96-3.62,4.88C438.57,319.26,437.85,319.4,437.26,319.1L437.26,319.1z"/>
		<path class="st1" d="M437.46,295.02c-0.16-0.08-0.29-0.22-0.36-0.38c-0.22-0.52-0.85-1.71-1.98-2c-1.46-0.36,0.83-1.72,2.31,0.12
			c1.48,1.84,1.74-1.14,3.03-0.71c1.09,0.36-1.21,1.68-2.05,2.76C438.19,295.11,437.78,295.19,437.46,295.02L437.46,295.02z"/>
	</g>
	<g>
		<path class="st1" d="M56.58,337.78c0,0,1.71,31.72-3.27,41.75c-0.68,1.38,0.28,2.99,1.81,2.99h11.4c1.53,0,2.52-1.6,1.84-2.97
			c-2.25-4.51-5.47-15.55-5.47-41.78H56.58z"/>
		<path class="st2" d="M57.37,356.81c-6.39-0.58-20.51-8.42-10.25-23.54c0,0-7.36-16.71,5.78-24.32c0,0-11.31-13.66,3.42-25.36
			c0,0-3.94-14.59,4.21-15.38c8.15-0.79,6.31,27.63,6.31,27.63s16.83,17.5,1.58,29.9c0,0,20.46,17.18,1.84,28.36
			C67.43,355.8,60.65,357.11,57.37,356.81z"/>
		<path class="st1" d="M58.57,344.31c-0.53-0.27-0.95-0.72-1.19-1.27c-0.74-1.74-2.81-5.71-6.58-6.64
			c-4.87-1.21,2.76-5.72,7.69,0.42c4.93,6.14,5.8-3.79,10.1-2.37c3.64,1.2-4.03,5.58-6.81,9.18
			C61.02,344.6,59.66,344.87,58.57,344.31L58.57,344.31z"/>
		<path class="st1" d="M58.95,319.1c-0.28-0.15-0.51-0.38-0.63-0.67c-0.39-0.92-1.49-3.03-3.5-3.53c-2.59-0.64,1.47-3.04,4.09,0.22
			c2.62,3.26,3.08-2.01,5.36-1.26c1.94,0.64-2.14,2.96-3.62,4.88C60.26,319.26,59.54,319.4,58.95,319.1L58.95,319.1z"/>
		<path class="st1" d="M59.15,295.02c-0.16-0.08-0.29-0.22-0.36-0.38c-0.22-0.52-0.85-1.71-1.98-2c-1.46-0.36,0.83-1.72,2.31,0.12
			c1.48,1.84,1.74-1.14,3.03-0.71c1.09,0.36-1.21,1.68-2.05,2.76C59.88,295.11,59.47,295.19,59.15,295.02L59.15,295.02z"/>
	</g>
</g>
<g id="Background_Simple" class="st3">
	<g class="st4">
		<path class="st5" d="M386.64,345.62c32.62-16.96,64.93-42.93,75.99-80.27c12.5-42.22-5.92-86.64-31.48-118.72
			c-39.1-49.06-94.69-80.02-153.18-96.27c-47.49-13.2-99.31-17.03-146.71,2.14c-47.4,19.17-89.02,65.06-95.47,119.22
			c-4.39,36.94,7.62,73.46,26.4,103.14c28.19,44.56,64.73,81.29,113.69,94.63c44.26,12.06,91.54,12.95,137.29,2.84
			C338.38,366.75,363.15,357.83,386.64,345.62z"/>
		<path class="st6" d="M386.64,345.62c32.62-16.96,64.93-42.93,75.99-80.27c12.5-42.22-5.92-86.64-31.48-118.72
			c-39.1-49.06-94.69-80.02-153.18-96.27c-47.49-13.2-99.31-17.03-146.71,2.14c-47.4,19.17-89.02,65.06-95.47,119.22
			c-4.39,36.94,7.62,73.46,26.4,103.14c28.19,44.56,64.73,81.29,113.69,94.63c44.26,12.06,91.54,12.95,137.29,2.84
			C338.38,366.75,363.15,357.83,386.64,345.62z"/>
	</g>
</g>
<g id="Shadow">
	<ellipse id="_x3C_Path_x3E__359_" class="st7" cx="250" cy="415.69" rx="193.89" ry="11.32"/>
</g>
<g id="High_school_building">
	<g>
		<g>
			<g>
				<g>
					<g>
						<polygon class="st5" points="280.17,184.23 280.17,300.19 280.17,313.91 280.17,382.43 429.64,382.43 429.64,313.91 
							429.64,300.19 429.64,184.23 						"/>
						<polygon class="st5" points="70.25,304.45 70.25,313.91 70.25,382.43 219.73,382.43 219.73,313.91 219.73,304.45 
							219.73,184.23 70.25,184.23 						"/>
					</g>
					<g class="st8">
						<polygon class="st9" points="280.17,184.23 280.17,300.19 280.17,313.91 280.17,382.43 429.64,382.43 429.64,313.91 
							429.64,300.19 429.64,184.23 						"/>
						<polygon class="st9" points="70.25,304.45 70.25,313.91 70.25,382.43 219.73,382.43 219.73,313.91 219.73,304.45 
							219.73,184.23 70.25,184.23 						"/>
					</g>
				</g>
				<polygon class="st5" points="250.17,187.84 435.68,187.84 408,157.37 250.17,157.37 				"/>
				<path class="st10" d="M392.14,277.95c0-6.97,5.55-12.61,12.41-12.61c6.85,0,12.41,5.65,12.41,12.61v31.13h-24.82V277.95z"/>
				<path class="st10" d="M348.48,277.95c0-6.97,5.56-12.61,12.41-12.61c6.85,0,12.41,5.65,12.41,12.61v31.13h-24.82V277.95z"/>
				<path class="st10" d="M304.81,277.95c0-6.97,5.56-12.61,12.41-12.61c6.85,0,12.41,5.65,12.41,12.61v31.13h-24.82V277.95z"/>
				<path class="st10" d="M392.14,211.56c0-6.97,5.55-12.61,12.41-12.61c6.85,0,12.41,5.65,12.41,12.61v31.13h-24.82V211.56z"/>
				<path class="st10" d="M348.48,211.56c0-6.97,5.56-12.61,12.41-12.61c6.85,0,12.41,5.65,12.41,12.61v31.13h-24.82V211.56z"/>
				<path class="st10" d="M304.81,211.56c0-6.97,5.56-12.61,12.41-12.61c6.85,0,12.41,5.65,12.41,12.61v31.13h-24.82V211.56z"/>
				<polygon class="st5" points="249.95,187.84 64.21,187.84 91.89,157.37 249.95,157.37 				"/>
				<path class="st10" d="M107.75,277.95c0-6.97-5.56-12.61-12.41-12.61s-12.41,5.65-12.41,12.61v31.13h24.82V277.95z"/>
				<path class="st10" d="M151.41,277.95c0-6.97-5.56-12.61-12.41-12.61c-6.85,0-12.41,5.65-12.41,12.61v31.13h24.82V277.95z"/>
				<path class="st10" d="M195.08,277.95c0-6.97-5.56-12.61-12.41-12.61c-6.85,0-12.41,5.65-12.41,12.61v31.13h24.82V277.95z"/>
				<path class="st10" d="M107.75,211.56c0-6.97-5.56-12.61-12.41-12.61s-12.41,5.65-12.41,12.61v31.13h24.82V211.56z"/>
				<path class="st10" d="M151.41,211.56c0-6.97-5.56-12.61-12.41-12.61c-6.85,0-12.41,5.65-12.41,12.61v31.13h24.82V211.56z"/>
				<path class="st10" d="M195.08,211.56c0-6.97-5.56-12.61-12.41-12.61c-6.85,0-12.41,5.65-12.41,12.61v31.13h24.82V211.56z"/>
				<g>
					
						<rect x="286.09" y="313.39" transform="matrix(-1 -1.224647e-16 1.224647e-16 -1 721.7667 633.9339)" class="st11" width="149.59" height="7.15"/>
					
						<rect x="286.09" y="313.39" transform="matrix(-1 -1.224647e-16 1.224647e-16 -1 721.7667 633.9339)" class="st12" width="149.59" height="7.15"/>
					<rect x="64.21" y="313.39" class="st11" width="149.59" height="7.15"/>
					<rect x="64.21" y="313.39" class="st12" width="149.59" height="7.15"/>
					
						<rect x="286.09" y="247.43" transform="matrix(-1 -1.224647e-16 1.224647e-16 -1 721.7667 502.0136)" class="st11" width="149.59" height="7.15"/>
					<g class="st13">
						
							<rect x="286.09" y="247.43" transform="matrix(-1 -1.224647e-16 1.224647e-16 -1 721.7667 502.0136)" class="st9" width="149.59" height="7.15"/>
					</g>
					<rect x="64.21" y="247.43" class="st11" width="149.59" height="7.15"/>
					<rect x="64.21" y="247.43" class="st12" width="149.59" height="7.15"/>
				</g>
				<g>
					<polygon class="st5" points="250.17,115.95 203.62,147.05 203.62,261.68 203.62,268.25 203.62,382.21 296.73,382.21 
						296.73,268.25 296.73,261.68 296.73,147.05 					"/>
					<polygon class="st14" points="250.17,115.95 203.62,147.05 203.62,261.68 203.62,268.25 203.62,382.21 296.73,382.21 
						296.73,268.25 296.73,261.68 296.73,147.05 					"/>
				</g>
				<g>
					<path class="st5" d="M198.97,152.21L198.97,152.21c-1.56-2.41-0.9-5.66,1.47-7.25l49.73-33.22l49.73,33.22
						c2.38,1.59,3.04,4.83,1.47,7.25l0,0c-1.56,2.41-4.75,3.09-7.13,1.5l-44.08-29.45l-44.08,29.45
						C203.72,155.29,200.53,154.62,198.97,152.21z"/>
				</g>
				<rect x="199.59" y="265.08" class="st5" width="101.16" height="7.15"/>
				<rect x="199.59" y="265.08" class="st15" width="101.16" height="7.15"/>
				<g class="st10">
					<rect x="228.81" y="338.26" width="19.09" height="18.22"/>
					<rect x="251.65" y="338.26" width="19.66" height="18.22"/>
					<path d="M251.65,334.45h19.66v-5.55c0-11.39-8.67-20.71-19.66-21.53V334.45z"/>
					<rect x="228.81" y="360.29" width="19.09" height="21.91"/>
					<path d="M247.9,334.45v-27.04c-10.72,1.1-19.09,10.3-19.09,21.49v5.55H247.9z"/>
					<rect x="251.65" y="360.29" width="19.66" height="21.91"/>
				</g>
				<g class="st10">
					<rect x="231.3" y="226.22" width="16.77" height="16"/>
					<rect x="251.36" y="226.22" width="17.27" height="16"/>
					<path d="M251.36,222.87h17.27V218c0-10-7.61-18.19-17.27-18.91V222.87z"/>
					<rect x="231.3" y="245.57" width="16.77" height="19.25"/>
					<path d="M248.07,222.87v-23.75c-9.42,0.97-16.77,9.05-16.77,18.87v4.88H248.07z"/>
					<rect x="251.36" y="245.57" width="17.27" height="19.25"/>
				</g>
				<ellipse class="st5" cx="250.39" cy="152.89" rx="18.06" ry="18.36"/>
				<ellipse class="st6" cx="250.39" cy="152.89" rx="14.69" ry="14.94"/>
				<g>
					<g class="st16">
						<path class="st5" d="M302.73,208.96c-34.26-12.87-71.32-12.87-105.58,0c-3.17,1.19-6.7-0.34-8-3.52l-4.76-11.68
							c-1.36-3.33,0.26-7.15,3.58-8.41c40.2-15.25,83.74-15.25,123.94,0c3.32,1.26,4.93,5.09,3.58,8.41l-4.76,11.68
							C309.44,208.62,305.91,210.15,302.73,208.96z"/>
					</g>
					<g>
						<path class="st5" d="M302.73,205.63c-34.26-12.87-71.32-12.87-105.58,0c-3.17,1.19-6.7-0.34-8-3.52l-4.76-11.68
							c-1.36-3.33,0.26-7.15,3.58-8.41c40.2-15.25,83.74-15.25,123.94,0c3.32,1.26,4.93,5.09,3.58,8.41l-4.76,11.68
							C309.44,205.29,305.91,206.82,302.73,205.63z"/>
					</g>
					<g class="st16">
						<path class="st9" d="M302.73,205.63c-34.26-12.87-71.32-12.87-105.58,0c-3.17,1.19-6.7-0.34-8-3.52l-4.76-11.68
							c-1.36-3.33,0.26-7.15,3.58-8.41c40.2-15.25,83.74-15.25,123.94,0c3.32,1.26,4.93,5.09,3.58,8.41l-4.76,11.68
							C309.44,205.29,305.91,206.82,302.73,205.63z"/>
					</g>
					<text transform="matrix(1.215 0 0 1 196.7417 193.4873)" class="st17 st18">SANTA MARÍA</text>
				</g>
			</g>
			<path class="st10" d="M392.14,347.04c0-6.97,5.55-12.61,12.41-12.61c6.85,0,12.41,5.65,12.41,12.61v31.13h-24.82V347.04z"/>
			<path class="st10" d="M348.48,347.04c0-6.97,5.56-12.61,12.41-12.61c6.85,0,12.41,5.65,12.41,12.61v31.13h-24.82V347.04z"/>
			<path class="st10" d="M304.81,347.04c0-6.97,5.56-12.61,12.41-12.61c6.85,0,12.41,5.65,12.41,12.61v31.13h-24.82V347.04z"/>
			<path class="st10" d="M107.75,347.04c0-6.97-5.56-12.61-12.41-12.61s-12.41,5.65-12.41,12.61v31.13h24.82V347.04z"/>
			<path class="st10" d="M151.41,347.04c0-6.97-5.56-12.61-12.41-12.61c-6.85,0-12.41,5.65-12.41,12.61v31.13h24.82V347.04z"/>
			<path class="st10" d="M195.08,347.04c0-6.97-5.56-12.61-12.41-12.61c-6.85,0-12.41,5.65-12.41,12.61v31.13h24.82V347.04z"/>
		</g>
		<g>
			<path class="st5" d="M250.66,156.17L250.66,156.17c0.89,0,1.6-0.77,1.54-1.67l-0.76-11.85c-0.03-0.42-0.37-0.75-0.78-0.75l0,0
				c-0.41,0-0.76,0.33-0.78,0.75l-0.76,11.85C249.06,155.41,249.76,156.17,250.66,156.17z"/>
			<path class="st5" d="M252.3,154.6L252.3,154.6c0-0.91-0.5-1.63-1.08-1.57l-7.66,0.77c-0.27,0.03-0.48,0.38-0.48,0.8l0,0
				c0,0.42,0.21,0.77,0.48,0.8l7.66,0.77C251.81,156.23,252.3,155.51,252.3,154.6z"/>
		</g>
	</g>
</g>
<g id="Character_4">
	<g>
		<path class="st19" d="M375.4,240.71c-2.03-0.77-4.31,0.25-5.08,2.28l-0.02,0.04c-0.73,1.93-1.48,3.96-2.27,5.91
			c-0.78,1.97-1.57,3.93-2.39,5.87c-0.83,1.93-1.68,3.84-2.59,5.65c-0.45,0.91-0.93,1.79-1.41,2.62c-0.27,0.47-0.56,0.92-0.84,1.33
			c-0.26-0.35-0.53-0.73-0.79-1.14c-0.64-0.99-1.25-2.09-1.85-3.2c-0.61-1.1-1.18-2.29-1.76-3.4l-0.04-0.07
			c-0.37-0.71-1.16-1.16-2-1.05c-1.08,0.14-1.85,1.13-1.71,2.21c0.18,1.42,0.46,2.73,0.78,4.1c0.33,1.35,0.74,2.69,1.27,4.06
			c0.27,0.68,0.58,1.37,0.95,2.08c0.38,0.71,0.81,1.44,1.52,2.23c0.36,0.39,0.8,0.81,1.45,1.21c0.64,0.39,1.62,0.8,2.79,0.76
			c1.17-0.03,2.24-0.54,2.87-1.04c0.5-0.38,0.86-0.76,1.16-1.12c1.9-2.05,3.07-4,4.23-6c1.15-2,2.15-4.01,3.09-6.03
			c0.95-2.02,1.82-4.06,2.64-6.11c0.81-2.07,1.61-4.09,2.32-6.25C378.4,243.64,377.38,241.46,375.4,240.71z"/>
		<polygon class="st5" points="376.43,412.44 370.19,411.27 371.05,400.02 377.81,401.29 		"/>
		<polygon class="st12" points="376.43,412.44 370.19,411.27 371.05,400.02 377.81,401.29 		"/>
		<path class="st11" d="M370.76,409.68l5.77,0.77c0.21,0.03,0.35,0.21,0.33,0.44l-0.39,5.08c-0.04,0.53-0.55,0.96-1.03,0.89
			c-2-0.31-2.94-0.56-5.48-0.9c-1.56-0.21-8.22-0.91-10.37-1.2c-2.11-0.28-1.78-2.63-0.84-2.72c4.22-0.41,9.47-1.05,11.09-2.12
			C370.12,409.72,370.45,409.64,370.76,409.68z"/>
		<polygon class="st5" points="420.72,409.1 414.46,410.17 411.37,399.32 418.15,398.16 		"/>
		<polygon class="st12" points="420.72,409.1 414.46,410.17 411.37,399.32 418.15,398.16 		"/>
		<path class="st11" d="M414.45,408.48l5.68-1.28c0.21-0.05,0.4,0.08,0.46,0.3l1.39,4.9c0.14,0.51-0.18,1.09-0.66,1.19
			c-1.98,0.41-2.96,0.49-5.45,1.05c-1.54,0.35-8.02,1.99-10.15,2.47c-2.07,0.47-2.58-1.85-1.73-2.26c3.82-1.85,8.52-4.27,9.67-5.83
			C413.86,408.74,414.15,408.55,414.45,408.48z"/>
		<path class="st5" d="M372.45,288.92c0,0-0.96,40.11-0.89,54.06c0.08,15.28-2.21,60.22-2.21,60.22l10.52,1.25
			c0,0,7.11-44.09,8.69-59.12c1.71-16.31,4.37-58.65,4.37-58.65L372.45,288.92z"/>
		<path class="st20" d="M387.66,303.68c-2.52,8.75-0.53,22.95,2.08,28.57c0.78-9.78,1.6-21.48,2.21-30.57
			C390.8,299.49,389.19,298.35,387.66,303.68z"/>
		<path class="st5" d="M379.58,404.53l-10.1-1.19c-0.35-0.04-0.62-0.32-0.66-0.66l-0.25-2.14c-0.06-0.5,0.38-0.92,0.88-0.83
			l10.91,1.89c0.47,0.08,0.75,0.57,0.58,1.02l-0.56,1.44C380.25,404.38,379.92,404.57,379.58,404.53z"/>
		<path class="st5" d="M383.61,287.46c0,0,5.82,36.93,9.14,50.64c3.63,15.01,17.38,64.57,17.38,64.57l10.5-1.14
			c0,0-11.84-58.96-13.4-78.86c-0.34-4.34-0.32-8.84-0.86-13.19c-0.66-5.35-2.08-12.02-2.59-16.14c-0.71-5.75-0.39-8.02-0.39-8.02
			L383.61,287.46z"/>
		<path class="st5" d="M420.17,401.57l-9.92,1.08c-0.33,0.04-0.64-0.16-0.75-0.46l-0.69-1.86c-0.16-0.45,0.15-0.93,0.62-0.96
			l10.58-0.71c0.58-0.04,1.07,0.43,1.06,1.01l-0.02,0.93C421.05,401.1,420.67,401.51,420.17,401.57z"/>
		<g>
			<path class="st5" d="M372.03,237.77c-5.19,3.77-6.42,14.96-6.42,14.96l9.32,5.34c0,0,3.73-2.82,4.79-8.8
				C380.04,247.46,377.31,233.94,372.03,237.77z"/>
		</g>
		<g class="st21">
			<path class="st9" d="M372.03,237.77c-5.19,3.77-6.42,14.96-6.42,14.96l9.32,5.34c0,0,3.73-2.82,4.79-8.8
				C380.04,247.46,377.31,233.94,372.03,237.77z"/>
		</g>
		<path class="st5" d="M375.2,236.35c5.91-1.26,12.17-1.48,18.69-0.97c3.47,0.27,6.38,2.72,7.17,6.12
			c1.84,7.86,4.32,23.57,3.23,48.33c-2.85,1.19-31.15,1.16-32.06,0.34c-2.25-4.28-4.39-15.46-0.35-25.98
			c-0.47-6.05-2.26-12.74-2.92-19.22C368.54,240.92,371.22,237.2,375.2,236.35z"/>
		<path class="st22" d="M375.2,236.35c5.91-1.26,12.17-1.48,18.69-0.97c3.47,0.27,6.38,2.72,7.17,6.12
			c1.84,7.86,4.32,23.57,3.23,48.33c-2.85,1.19-31.15,1.16-32.06,0.34c-2.25-4.28-4.39-15.46-0.35-25.98
			c-0.47-6.05-2.26-12.74-2.92-19.22C368.54,240.92,371.22,237.2,375.2,236.35z"/>
		<path class="st19" d="M412.08,266.29l-0.1-0.88c-0.08-0.57-0.16-1.15-0.28-1.71c-0.9-4.47-2.56-8.43-4.43-12.22
			c-0.95-1.89-1.95-3.73-3.05-5.52c-1.11-1.8-2.18-3.51-3.49-5.3c-1.25-1.69-3.62-2.12-5.38-0.93c-1.8,1.22-2.28,3.66-1.07,5.47
			l0.05,0.08c1.01,1.5,2.11,3.17,3.09,4.81c0.99,1.65,1.97,3.31,2.87,5c1.8,3.35,3.4,6.82,4.3,10.21c0.12,0.42,0.2,0.84,0.3,1.25
			l0.11,0.62c0.03,0.15,0.02,0.09,0.03,0.12c0.01,0.01,0,0.01,0.02,0.02c0.02,0.01,0.05-0.02,0.05,0.04
			c0.01,0.05-0.06,0.19-0.2,0.36c-0.27,0.35-0.85,0.79-1.53,1.17c-0.68,0.4-1.47,0.76-2.31,1.08c-1.67,0.66-3.51,1.18-5.38,1.65
			c-1.86,0.47-3.82,0.86-5.69,1.21l-0.1,0.02c-0.87,0.16-1.55,0.9-1.6,1.82c-0.06,1.08,0.77,2,1.85,2.06
			c4.24,0.23,8.35,0.07,12.71-0.93c1.09-0.27,2.19-0.6,3.32-1.07c1.12-0.49,2.3-1.1,3.47-2.16c0.58-0.53,1.16-1.19,1.62-2.03
			c0.46-0.84,0.77-1.85,0.84-2.85c0.01-0.24,0.03-0.5,0.01-0.74C412.11,266.7,412.1,266.4,412.08,266.29z"/>
		<g>
			<path class="st5" d="M395.87,235.78c6.29,1.29,12.27,13.64,12.27,13.64l-8.62,6.88c0,0-3.91-1.25-6.74-6.63
				C391.93,248.04,389.48,234.47,395.87,235.78z"/>
		</g>
		<g class="st21">
			<path class="st9" d="M395.87,235.78c6.29,1.29,12.27,13.64,12.27,13.64l-8.62,6.88c0,0-3.91-1.25-6.74-6.63
				C391.93,248.04,389.48,234.47,395.87,235.78z"/>
		</g>
		<path class="st11" d="M403.91,288.86c-12.26,1.28-26.86,0.58-32.02,0.26c-0.37-0.02-0.64,0.33-0.54,0.68l0.4,1.33
			c0.06,0.21,0.25,0.36,0.47,0.38c3.08,0.18,8.78,0.46,15.29,0.46c5.26,0,11.04-0.18,16.41-0.73c0.3-0.03,0.52-0.28,0.52-0.58
			c0-0.42,0.04-0.8,0.09-1.11C404.6,289.15,404.3,288.82,403.91,288.86z"/>
		<g>
			<g>
				<path class="st11" d="M386.8,292.58h-2.9v-0.68h2.9c0.16,0,0.29-0.13,0.29-0.29v-1.79c0-0.16-0.13-0.29-0.29-0.29h-2.9v-0.68
					h2.9c0.53,0,0.97,0.44,0.97,0.97v1.79C387.77,292.15,387.34,292.58,386.8,292.58z"/>
			</g>
			<g class="st21">
				<path class="st9" d="M386.8,292.58h-2.9v-0.68h2.9c0.16,0,0.29-0.13,0.29-0.29v-1.79c0-0.16-0.13-0.29-0.29-0.29h-2.9v-0.68h2.9
					c0.53,0,0.97,0.44,0.97,0.97v1.79C387.77,292.15,387.34,292.58,386.8,292.58z"/>
			</g>
		</g>
		<g>
			<path class="st5" d="M382.95,241.05l-0.91,0.53l-1.3-0.7c0,0-1.61,10.35,0.59,10.54C383.13,251.58,381.75,246.06,382.95,241.05z"
				/>
			<path class="st23" d="M382.95,241.05l-0.91,0.53l-1.3-0.7c0,0-1.61,10.35,0.59,10.54C383.13,251.58,381.75,246.06,382.95,241.05z
				"/>
		</g>
		<path class="st11" d="M374.2,229c0,0-10.33-8.51-3.57-18.3c5.31-7.69,11.53-3.58,11.53-3.58s11.17-1.47,11.13,10.54
			c-0.04,11.65-8.43,11.7-8.43,11.7L374.2,229z"/>
		<path class="st19" d="M385.46,225.27c0.56,4.14,1.4,8.95,4.33,11.3c-1.09,2.86-3.83,5.43-7.87,5.64
			c-4.43,0.23-3.75-3.31-3.02-5.18c1.88-2.11,0.98-4.47,0.5-6.14L385.46,225.27z"/>
		<path class="st20" d="M384.24,227.3c-0.03-0.26-0.07-0.53-0.11-0.78l-4.71,4.38c0.28,1,0.72,2.25,0.62,3.54
			C382.38,232.86,384.52,229.81,384.24,227.3z"/>
		<path class="st19" d="M387.41,219.14c-0.73,5.75-0.87,9.16-3.98,11.91c-4.68,4.13-11.65,0.96-12.65-4.91
			c-0.9-5.28,0.45-13.8,6.26-15.68C382.76,208.6,388.14,213.39,387.41,219.14z"/>
		<path class="st11" d="M375.52,227.2c-0.26,0-0.54-0.02-0.84-0.08c-0.08-0.01-0.13-0.09-0.12-0.17c0.01-0.08,0.09-0.13,0.17-0.12
			c2.16,0.38,3.44-0.95,3.45-0.96c0.06-0.06,0.15-0.06,0.21-0.01c0.06,0.06,0.06,0.15,0.01,0.21
			C378.35,226.13,377.32,227.2,375.52,227.2z"/>
		<path class="st11" d="M378.2,220.3c-0.03,0.47-0.31,0.83-0.61,0.81c-0.31-0.02-0.53-0.42-0.5-0.89c0.03-0.47,0.31-0.83,0.61-0.81
			C378.01,219.43,378.23,219.83,378.2,220.3z"/>
		<path class="st11" d="M372.32,220.04c-0.03,0.47-0.31,0.83-0.61,0.81c-0.31-0.02-0.53-0.42-0.5-0.89
			c0.03-0.47,0.31-0.83,0.61-0.81C372.12,219.17,372.35,219.57,372.32,220.04z"/>
		<path class="st24" d="M374.03,220.64c0,0-1.41,2.55-2.74,3.7c0.73,0.89,2.18,0.72,2.18,0.72L374.03,220.64z"/>
		<path class="st11" d="M379.26,217.16c0.05,0,0.09-0.02,0.13-0.04c0.13-0.08,0.16-0.25,0.08-0.38c-0.84-1.29-2.12-1.31-2.18-1.31
			c-0.15,0-0.28,0.12-0.28,0.28c0,0.15,0.12,0.28,0.28,0.28l0,0c0.04,0,1.04,0.03,1.71,1.05
			C379.07,217.13,379.17,217.17,379.26,217.16z"/>
		<path class="st11" d="M370.53,217.64c0.09,0.02,0.18-0.01,0.25-0.08c0.85-0.88,1.83-0.7,1.87-0.7c0.15,0.03,0.29-0.07,0.32-0.22
			c0.03-0.15-0.07-0.29-0.22-0.32c-0.05-0.01-1.31-0.24-2.37,0.85c-0.11,0.11-0.1,0.29,0.01,0.39
			C370.43,217.61,370.48,217.63,370.53,217.64z"/>
		<g>
			<path class="st5" d="M388.23,234.52c0.13,1.27-1.39,5.78-6.71,7.7c2.05,0.02,5.96,2.62,5.96,2.62s4.04-3.76,3.2-8.3
				C390.14,234.43,388.23,234.52,388.23,234.52z"/>
			<path class="st5" d="M379.88,234.87c0.13,1.24-1.31,3.86,1.65,7.36c-2.05,0.02-5.54,2.06-5.54,2.06s-0.47-3.89,1.68-8.39
				C378.76,234.93,379.88,234.87,379.88,234.87z"/>
		</g>
		<g class="st16">
			<path class="st9" d="M388.23,234.52c0.13,1.27-1.39,5.78-6.71,7.7c2.05,0.02,5.96,2.62,5.96,2.62s4.04-3.76,3.2-8.3
				C390.14,234.43,388.23,234.52,388.23,234.52z"/>
			<path class="st9" d="M379.88,234.87c0.13,1.24-1.31,3.86,1.65,7.36c-2.05,0.02-5.54,2.06-5.54,2.06s-0.47-3.89,1.68-8.39
				C378.76,234.93,379.88,234.87,379.88,234.87z"/>
		</g>
		<path class="st11" d="M375.23,205.05l0.09,0.21c4.72-2.26,6.93,2.62,6.93,2.62C382.18,200.81,377.5,203.38,375.23,205.05z"/>
		<path class="st11" d="M388.4,211.67l-4.32-2.2l-3.08-0.63l-2-0.57c0,0-6.11-0.12-8.48,6.72c0,0,1.28-0.65,3.63-0.7
			c0.24-0.59,0.85-1.81,2.12-2.71c0,0-0.85,1.08-1.08,2.73c2.17,0.12,5.03,0.77,8.5,2.65l0.57-2.98c0,0,0.31,2.23,0.31,5.41
			c0,3.17,0.38,5,0.38,5l3.01-0.79l2.26-8.18L388.4,211.67z"/>
		<g>
			<path class="st5" d="M369.11,220.43c-0.06,1.57,0.91,2.88,2.16,2.93c1.25,0.05,2.31-1.19,2.37-2.76c0-0.04-0.01-0.07,0-0.11
				c0.42-0.35,1.04-0.33,1.45,0.04c0,0.04-0.02,0.08-0.02,0.12c-0.06,1.57,1.17,2.89,2.74,2.95c1.51,0.06,2.78-1.08,2.93-2.56
				l6.55,1.09l0.01-0.35l-6.55-1.09c-0.04-1.49-1.22-2.72-2.72-2.78c-1.39-0.05-2.58,0.9-2.88,2.21c-0.46-0.3-1.05-0.32-1.52-0.05
				c-0.15-1.33-1.03-2.36-2.13-2.4C370.24,217.62,369.17,218.86,369.11,220.43z M375.42,220.67c0.05-1.37,1.21-2.45,2.59-2.4
				c1.37,0.05,2.45,1.21,2.4,2.59c-0.05,1.37-1.21,2.45-2.59,2.4C376.44,223.2,375.37,222.04,375.42,220.67z M369.46,220.44
				c0.05-1.37,0.95-2.46,2.01-2.42c1.05,0.04,1.87,1.19,1.82,2.57c-0.05,1.37-0.95,2.46-2.01,2.42
				C370.23,222.97,369.41,221.81,369.46,220.44z"/>
		</g>
		<path class="st19" d="M388.99,225.14c-0.82,1.32-2.18,2.14-3.44,2.4c-1.89,0.4-2.73-1.33-2.11-3.05c0.56-1.55,2.21-3.62,4.06-3.24
			C389.33,221.62,389.93,223.63,388.99,225.14z"/>
		<g>
			<g>
				<path class="st5" d="M354.56,253.96h31.71v-6.61h-31.73C354.84,249.54,354.84,251.76,354.56,253.96z"/>
				<path class="st14" d="M354.56,253.96h31.71v-6.61h-31.73C354.84,249.54,354.84,251.76,354.56,253.96z"/>
				<g>
					<path class="st5" d="M380.5,247h9.97l0.1,0.1c0.96,0.96,1.49,2.24,1.49,3.59c0,1.36-0.53,2.63-1.49,3.59l-0.1,0.1h-9.97
						l0.59-0.59c0.83-0.83,1.28-1.93,1.28-3.1c0-1.17-0.46-2.27-1.28-3.1L380.5,247z"/>
				</g>
				<g class="st10">
					<path d="M380.5,247h9.97l0.1,0.1c0.96,0.96,1.49,2.24,1.49,3.59c0,1.36-0.53,2.63-1.49,3.59l-0.1,0.1h-9.97l0.59-0.59
						c0.83-0.83,1.28-1.93,1.28-3.1c0-1.17-0.46-2.27-1.28-3.1L380.5,247z"/>
				</g>
				<g>
					<path class="st5" d="M354.24,247h26.92l0.03,0.03c0.93,0.93,1.51,2.17,1.56,3.49c0.05,1.43-0.48,2.77-1.49,3.78l-0.1,0.1
						h-26.92c-0.19,0-0.35-0.16-0.35-0.35l0,0c0-0.19,0.16-0.35,0.35-0.35h26.63c0.77-0.82,1.19-1.88,1.19-3
						c0-1.12-0.42-2.18-1.19-3h-26.63c-0.19,0-0.35-0.16-0.35-0.35l0,0C353.89,247.15,354.05,247,354.24,247z"/>
				</g>
			</g>
			<g>
				<path class="st5" d="M356.72,267.31h28.54v-5.95h-28.55C356.97,263.33,356.97,265.33,356.72,267.31z"/>
				<path class="st23" d="M356.72,267.31h28.54v-5.95h-28.55C356.97,263.33,356.97,265.33,356.72,267.31z"/>
				<g>
					<path class="st11" d="M380.06,261.04h8.97l0.09,0.09c0.86,0.86,1.34,2.01,1.34,3.23c0,1.22-0.48,2.37-1.34,3.23l-0.09,0.09
						h-8.97l0.53-0.53c0.75-0.75,1.16-1.74,1.16-2.79c0-1.05-0.41-2.05-1.16-2.79L380.06,261.04z"/>
				</g>
				<g>
					<path class="st5" d="M356.42,261.04h24.23l0.03,0.03c0.84,0.84,1.36,1.95,1.4,3.14c0.04,1.28-0.43,2.5-1.34,3.4l-0.09,0.09
						h-24.23c-0.17,0-0.31-0.14-0.31-0.31l0,0c0-0.17,0.14-0.31,0.31-0.31h23.97c0.69-0.73,1.07-1.69,1.07-2.7
						c0-1.01-0.38-1.97-1.07-2.7h-23.97c-0.17,0-0.31-0.14-0.31-0.31l0,0C356.11,261.18,356.25,261.04,356.42,261.04z"/>
				</g>
				<g class="st25">
					<path class="st9" d="M356.42,261.04h24.23l0.03,0.03c0.84,0.84,1.36,1.95,1.4,3.14c0.04,1.28-0.43,2.5-1.34,3.4l-0.09,0.09
						h-24.23c-0.17,0-0.31-0.14-0.31-0.31l0,0c0-0.17,0.14-0.31,0.31-0.31h23.97c0.69-0.73,1.07-1.69,1.07-2.7
						c0-1.01-0.38-1.97-1.07-2.7h-23.97c-0.17,0-0.31-0.14-0.31-0.31l0,0C356.11,261.18,356.25,261.04,356.42,261.04z"/>
				</g>
			</g>
			<g>
				<path class="st5" d="M356.72,273.96h28.54v-5.95h-28.55C356.97,269.99,356.97,271.99,356.72,273.96z"/>
				<path class="st23" d="M356.72,273.96h28.54v-5.95h-28.55C356.97,269.99,356.97,271.99,356.72,273.96z"/>
				<g>
					<path class="st5" d="M380.06,267.7h8.97l0.09,0.09c0.86,0.86,1.34,2.01,1.34,3.23c0,1.22-0.48,2.37-1.34,3.23l-0.09,0.09h-8.97
						l0.53-0.53c0.75-0.75,1.16-1.74,1.16-2.79c0-1.05-0.41-2.05-1.16-2.79L380.06,267.7z"/>
				</g>
				<g class="st25">
					<path class="st9" d="M380.06,267.7h8.97l0.09,0.09c0.86,0.86,1.34,2.01,1.34,3.23c0,1.22-0.48,2.37-1.34,3.23l-0.09,0.09h-8.97
						l0.53-0.53c0.75-0.75,1.16-1.74,1.16-2.79c0-1.05-0.41-2.05-1.16-2.79L380.06,267.7z"/>
				</g>
				<g>
					<path class="st5" d="M356.42,267.7h24.23l0.03,0.03c0.84,0.84,1.36,1.95,1.4,3.14c0.04,1.28-0.43,2.5-1.34,3.4l-0.09,0.09
						h-24.23c-0.17,0-0.31-0.14-0.31-0.31l0,0c0-0.17,0.14-0.31,0.31-0.31h23.97c0.69-0.73,1.07-1.69,1.07-2.7
						c0-1.01-0.38-1.97-1.07-2.7h-23.97c-0.17,0-0.31-0.14-0.31-0.31l0,0C356.11,267.84,356.25,267.7,356.42,267.7z"/>
				</g>
				<g class="st13">
					<path class="st9" d="M356.42,267.7h24.23l0.03,0.03c0.84,0.84,1.36,1.95,1.4,3.14c0.04,1.28-0.43,2.5-1.34,3.4l-0.09,0.09
						h-24.23c-0.17,0-0.31-0.14-0.31-0.31l0,0c0-0.17,0.14-0.31,0.31-0.31h23.97c0.69-0.73,1.07-1.69,1.07-2.7
						c0-1.01-0.38-1.97-1.07-2.7h-23.97c-0.17,0-0.31-0.14-0.31-0.31l0,0C356.11,267.84,356.25,267.7,356.42,267.7z"/>
				</g>
			</g>
			<g>
				<path class="st5" d="M356.72,246.57h28.54v-5.95h-28.55C356.97,242.59,356.97,244.59,356.72,246.57z"/>
				<path class="st23" d="M356.72,246.57h28.54v-5.95h-28.55C356.97,242.59,356.97,244.59,356.72,246.57z"/>
				<g>
					<path class="st11" d="M380.06,240.3h8.97l0.09,0.09c0.86,0.86,1.34,2.01,1.34,3.23c0,1.22-0.48,2.37-1.34,3.24l-0.09,0.09
						h-8.97l0.53-0.53c0.75-0.75,1.16-1.74,1.16-2.79c0-1.05-0.41-2.05-1.16-2.79L380.06,240.3z"/>
				</g>
				<g>
					<path class="st5" d="M356.42,240.3h24.23l0.03,0.03c0.84,0.84,1.36,1.95,1.4,3.14c0.04,1.28-0.43,2.5-1.34,3.4l-0.09,0.09
						h-24.23c-0.17,0-0.31-0.14-0.31-0.31l0,0c0-0.17,0.14-0.31,0.31-0.31h23.97c0.69-0.73,1.07-1.69,1.07-2.7
						c0-1.01-0.38-1.97-1.07-2.7h-23.97c-0.17,0-0.31-0.14-0.31-0.31l0,0C356.11,240.44,356.25,240.3,356.42,240.3z"/>
				</g>
			</g>
			<g>
				<path class="st5" d="M356.72,260.66h28.54v-5.95h-28.55C356.97,256.68,356.97,258.68,356.72,260.66z"/>
				<path class="st14" d="M356.72,260.66h28.54v-5.95h-28.55C356.97,256.68,356.97,258.68,356.72,260.66z"/>
				<g>
					<path class="st5" d="M380.06,254.39h8.97l0.09,0.09c0.86,0.86,1.34,2.01,1.34,3.23c0,1.22-0.48,2.37-1.34,3.23l-0.09,0.09
						h-8.97l0.53-0.53c0.75-0.75,1.16-1.74,1.16-2.79c0-1.05-0.41-2.05-1.16-2.79L380.06,254.39z"/>
				</g>
				<g class="st8">
					<path class="st9" d="M380.06,254.39h8.97l0.09,0.09c0.86,0.86,1.34,2.01,1.34,3.23c0,1.22-0.48,2.37-1.34,3.23l-0.09,0.09
						h-8.97l0.53-0.53c0.75-0.75,1.16-1.74,1.16-2.79c0-1.05-0.41-2.05-1.16-2.79L380.06,254.39z"/>
				</g>
				<g>
					<path class="st5" d="M356.42,254.39h24.23l0.03,0.03c0.84,0.84,1.36,1.95,1.4,3.14c0.04,1.28-0.43,2.5-1.34,3.4l-0.09,0.09
						h-24.23c-0.17,0-0.31-0.14-0.31-0.31l0,0c0-0.17,0.14-0.31,0.31-0.31h23.97c0.69-0.73,1.07-1.69,1.07-2.7
						c0-1.01-0.38-1.97-1.07-2.7h-23.97c-0.17,0-0.31-0.14-0.31-0.31l0,0C356.11,254.53,356.25,254.39,356.42,254.39z"/>
				</g>
				<g class="st10">
					<path class="st9" d="M356.42,254.39h24.23l0.03,0.03c0.84,0.84,1.36,1.95,1.4,3.14c0.04,1.28-0.43,2.5-1.34,3.4l-0.09,0.09
						h-24.23c-0.17,0-0.31-0.14-0.31-0.31l0,0c0-0.17,0.14-0.31,0.31-0.31h23.97c0.69-0.73,1.07-1.69,1.07-2.7
						c0-1.01-0.38-1.97-1.07-2.7h-23.97c-0.17,0-0.31-0.14-0.31-0.31l0,0C356.11,254.53,356.25,254.39,356.42,254.39z"/>
				</g>
			</g>
		</g>
		<g>
			<path class="st19" d="M392.99,272.46l-5.24-2.09l-0.64,6.73c0,0,4.97,1.32,6.1-1.21L392.99,272.46z"/>
			<path class="st19" d="M382.35,272.64l0.17,2.4c0.07,0.95,0.82,1.72,1.77,1.81l2.81,0.26l0.64-6.73l-3.55,0.18
				C383.11,270.61,382.27,271.55,382.35,272.64z"/>
		</g>
		<g>
			<path class="st19" d="M352.84,257.77l0.3-5.63l6.38,2.24c0,0-0.89,5.06-3.66,5.02L352.84,257.77z"/>
			<path class="st19" d="M357.47,248.19l2.1,1.16c0.84,0.46,1.22,1.46,0.9,2.36l-0.95,2.66l-6.38-2.24l1.65-3.14
				C355.3,248.02,356.51,247.66,357.47,248.19z"/>
		</g>
		<g class="st13">
			<path class="st9" d="M393.41,250.47c-2.78-4.24-2.1-10.32-1.79-12.27c0.05-0.33,0.37-0.56,0.7-0.49l0,0
				c0.31,0.06,0.51,0.35,0.46,0.66c-0.28,1.79-0.91,7.56,1.59,11.42c0.17,0.27,0.12,0.61-0.13,0.8l0,0
				C393.98,250.81,393.59,250.75,393.41,250.47z"/>
		</g>
		<g class="st13">
			<path class="st9" d="M398.17,254.17L398.17,254.17c-0.2-0.26-0.15-0.63,0.1-0.83l6.82-5.31c0.26-0.2,0.63-0.15,0.83,0.1l0,0
				c0.2,0.26,0.15,0.63-0.1,0.83l-6.82,5.31C398.74,254.47,398.37,254.42,398.17,254.17z"/>
		</g>
	</g>
</g>
<g id="Character_3">
	<g>
		<g>
			<path class="st11" d="M274.6,250.68c-1.25-2.81,1.12-3.85,2.82-8.34c0,0-2.89-5.08,1.25-9.52c0,0-0.07-9.37,7.81-10.22
				c0,0,2.72-7.44,13.38,1.54c10.66,8.97,5.65,13.8,5.65,13.8s4.95,4.63,2.06,8.04c0,0,4.2,6.1,1.05,7.94
				c-3.15,1.84-5.41-2.03-5.41-2.03s-1.31,5.75-10.03,0.74c0,0-12.7,6.07-10.72-0.74C282.45,251.89,276.99,256.07,274.6,250.68z"/>
			<g>
				<path class="st26" d="M257.57,252.63l-0.03-2.52c-0.01-0.92-0.26-1.82-0.72-2.61l-0.88-1.49c-0.58-0.99-1.78-1.42-2.86-1.03
					l-1.62,0.59c-1.24,0.45-1.88,1.83-1.41,3.07l0.52,1.37c0,0,0.98,3.98,3.52,6.03l0.84-0.37
					C256.3,255.08,257.27,253.96,257.57,252.63z"/>
			</g>
			<path class="st26" d="M283.69,255.68c-2.05-1.61-5.02-1.24-6.62,0.81l-0.27,0.35l-0.56,0.72l-0.67,0.82
				c-0.47,0.54-0.94,1.08-1.44,1.59c-0.98,1.03-2.04,1.96-3.11,2.78c-1.08,0.8-2.19,1.48-3.31,1.97c-0.56,0.26-1.12,0.42-1.68,0.59
				c-0.28,0.08-0.56,0.14-0.84,0.19c-0.05,0.01-0.1,0.01-0.14,0.02c-0.27-0.29-0.58-0.66-0.87-1.06c-0.82-1.14-1.65-2.48-2.43-3.86
				c-1.57-2.77-3.06-5.76-4.57-8.67l-0.03-0.07c-0.46-0.88-1.44-1.41-2.48-1.24c-1.29,0.21-2.17,1.42-1.96,2.71
				c0.56,3.48,1.4,6.8,2.56,10.17c0.6,1.68,1.25,3.36,2.17,5.1c0.48,0.87,0.99,1.75,1.77,2.72c0.4,0.48,0.86,1,1.57,1.53
				c0.7,0.5,1.72,1.17,3.4,1.29l0.3,0.01l0.1,0l0.21,0l0.42,0c0.28,0,0.56-0.01,0.83-0.03c0.56-0.03,1.1-0.09,1.65-0.17
				c1.08-0.17,2.15-0.43,3.16-0.77c2.03-0.67,3.88-1.64,5.55-2.76c1.67-1.11,3.17-2.39,4.54-3.76c0.68-0.69,1.33-1.39,1.95-2.14
				c0.31-0.38,0.61-0.75,0.9-1.15l0.44-0.61l0.48-0.71C286.06,260.01,285.65,257.22,283.69,255.68z"/>
			<path class="st5" d="M285.3,257.4c-3.29-7.86-11.12-0.56-14.87,3.63c0.94,1.19,3.23,4.55,4.99,10.55
				C279.99,268.85,287.73,263.19,285.3,257.4z"/>
			<path class="st22" d="M285.3,257.4c-3.29-7.86-11.12-0.56-14.87,3.63c0.94,1.19,3.23,4.55,4.99,10.55
				C279.99,268.85,287.73,263.19,285.3,257.4z"/>
			<path class="st26" d="M275.23,292.25c0,0,0.94,30.43,5.37,53.36c1.05,19.4,11.01,66,11.01,66c2.51,0.49,3.29,0.57,5.37-0.06
				c0,0,4.08-36.07-1.56-65.48c0.55-5.28,0.57-12.31,2-18.82c1.22-5.55,4.67-12.29,4.88-15.68c1.06-17.21,0.09-19.32,0.09-19.32
				H275.23z"/>
			<path class="st26" d="M284.26,292.25c0,0,10.07,42.29,16.41,60.36c6.66,18.97,29.92,53.18,30.63,54.44
				c2.62-0.7,2.59-0.83,4.14-2.35c0,0-13.89-44-21.11-56.7c-3.2-43-10.07-55.75-10.07-55.75H284.26z"/>
			<g>
				<path class="st5" d="M298.45,385.21c-0.15,15.16-1.43,26.48-1.43,26.48c-2.1,0.64-2.88,0.56-5.42,0.06
					c0,0-2.37-11.11-4.94-24.77l-0.77,0.02l-0.15-1.23c-0.06-0.49,0.29-0.94,0.78-1c2.34-0.28,8.66-1.07,11.46-1.66
					c0.5-0.11,0.99,0.23,1.07,0.74l0.18,1.09L298.45,385.21z"/>
				<path class="st12" d="M298.45,385.21c-0.15,15.16-1.43,26.48-1.43,26.48c-2.1,0.64-2.88,0.56-5.42,0.06
					c0,0-2.37-11.11-4.94-24.77l-0.77,0.02l-0.15-1.23c-0.06-0.49,0.29-0.94,0.78-1c2.34-0.28,8.66-1.07,11.46-1.66
					c0.5-0.11,0.99,0.23,1.07,0.74l0.18,1.09L298.45,385.21z"/>
			</g>
			<g>
				<path class="st5" d="M328.41,383.15c4.08,11.85,7.21,21.77,7.21,21.77c-1.59,1.55-1.55,1.68-4.22,2.39
					c-0.34-0.6-5.79-8.68-12.18-19.09l-0.69,0.35l-0.91-1.47c-0.21-0.34-0.08-0.78,0.28-0.95c1.79-0.84,6.68-3.19,9.4-5.1
					c0.34-0.24,0.8-0.11,0.98,0.26l0.66,1.38L328.41,383.15z"/>
				<path class="st12" d="M328.41,383.15c4.08,11.85,7.21,21.77,7.21,21.77c-1.59,1.55-1.55,1.68-4.22,2.39
					c-0.34-0.6-5.79-8.68-12.18-19.09l-0.69,0.35l-0.91-1.47c-0.21-0.34-0.08-0.78,0.28-0.95c1.79-0.84,6.68-3.19,9.4-5.1
					c0.34-0.24,0.8-0.11,0.98,0.26l0.66,1.38L328.41,383.15z"/>
			</g>
			<path class="st5" d="M275.23,290.83c0,0-3,3.94,2.52,56.21c0,0,11.3,6.57,39.66,1.31c0,0-1.38-2.23-2.56-13.66
				c-1.18-11.43-5.04-36.82-10.6-42.45l-1.46-2.47l-26.55-0.99L275.23,290.83z"/>
			<path class="st5" d="M274.05,262.62c0.11,2.47-3.8,8.2,1.02,11.51c-0.9,2.01-1.66,15.68,0.16,18.12c2.66,1.96,17.07,1.58,29.02,0
				c0.5-4.94-2.21-15.17,1.12-31.12c0.77-3.7-1.83-7.25-5.59-7.63c-1-0.1-2.07-0.19-3.16-0.24c-4.24-0.2-7.71-0.34-11.43,0
				c-1.23,0.11-2.51,0.27-3.73,0.44C277.07,254.31,273.85,258.18,274.05,262.62z"/>
			<path class="st22" d="M274.05,262.62c0.11,2.47-3.8,8.2,1.02,11.51c-0.9,2.01-1.66,15.68,0.16,18.12
				c2.66,1.96,17.07,1.58,29.02,0c0.5-4.94-2.21-15.17,1.12-31.12c0.77-3.7-1.83-7.25-5.59-7.63c-1-0.1-2.07-0.19-3.16-0.24
				c-4.24-0.2-7.71-0.34-11.43,0c-1.23,0.11-2.51,0.27-3.73,0.44C277.07,254.31,273.85,258.18,274.05,262.62z"/>
			<path class="st20" d="M304.79,264.22c-0.64,3.77-0.95,7.19-1.06,10.26c-2.75-3.81-5.87-10.73-5.7-13.96L304.79,264.22z"/>
			<path class="st20" d="M300.61,350.32l-8.51-21.53c2.49,14.84-0.33,20.22-1.1,21.36C293.73,350.37,296.93,350.46,300.61,350.32z"
				/>
			<path class="st11" d="M285.1,417.17c4.9,0,4.55-0.08,7.31-0.17c2.36-0.08,2.9,0.21,4.8,0.17c1.58-0.03,1.64-1.55,1.28-3.29
				c-0.14-0.67-0.35-1.45-0.54-2.41c-0.11-0.56-0.59-0.95-1.16-0.95h-5.73c-0.42,0-0.83,0.2-1.08,0.55
				c-1.21,1.65-3.18,2.86-5.69,3.2C281.62,414.62,283.15,417.17,285.1,417.17z"/>
			<path class="st11" d="M330.95,415.42c3.46-3.46,3.16-3.27,5.05-5.29c1.61-1.73,2.2-1.91,3.51-3.28c1.1-1.14,0.06-2.25-1.42-3.23
				c-0.57-0.38-1.27-0.78-2.09-1.32c-0.47-0.31-1.08-0.25-1.49,0.15l-4.05,4.05c-0.29,0.29-0.45,0.73-0.38,1.15
				c0.31,2.02-0.22,4.27-1.76,6.29C326.68,416.08,329.56,416.8,330.95,415.42z"/>
			<path class="st26" d="M287.96,245.94c0,0,0.96,6.8-4.37,7.63c0,0-1.24,5.12,0.92,5.47c0.72,0.1,10.29-5.12,10.29-5.12l1.47-0.62
				c0,0-0.97-8.49,0.06-11.64L287.96,245.94z"/>
			<path class="st20" d="M295.91,241.88l-7.95,4.07c0,0,0.13,0.91,0.03,2.1c0.95,0.02,3.66-0.3,6.96-4.12
				C295.99,242.72,296.19,242.12,295.91,241.88z"/>
			<g>
				<path class="st5" d="M283.69,258.58c0,0-1.56,3.99-1.52,7.95c0,0.52,0.32,1,0.81,1.18l0,0c0.52,0.2,1.08-0.18,1.08-0.74
					c0-1.91,0.17-5.77,1.49-8.39l-0.94,0.54L283.69,258.58z"/>
				<path class="st23" d="M283.69,258.58c0,0-1.56,3.99-1.52,7.95c0,0.52,0.32,1,0.81,1.18l0,0c0.52,0.2,1.08-0.18,1.08-0.74
					c0-1.91,0.17-5.77,1.49-8.39l-0.94,0.54L283.69,258.58z"/>
			</g>
			<g>
				<path class="st5" d="M284.92,253.16c-0.85,0.73-1.87,2.31-0.51,5.3c0,0,8.85-6.47,12.84-5.4l1.05,0.31c0,0-8.23,3.7-8.35,7.15
					c0,0-3.07-2.92-5.54-0.88c0,0-2.27-2.43-4.04,0.39c0,0,0.31-5.71,2.55-6.76l1.84-0.42
					C284.95,252.81,285.06,253.03,284.92,253.16z"/>
				<path class="st6" d="M284.92,253.16c-0.85,0.73-1.87,2.31-0.51,5.3c0,0,8.85-6.47,12.84-5.4l1.05,0.31c0,0-8.23,3.7-8.35,7.15
					c0,0-3.07-2.92-5.54-0.88c0,0-2.27-2.43-4.04,0.39c0,0,0.31-5.71,2.55-6.76l1.84-0.42
					C284.95,252.81,285.06,253.03,284.92,253.16z"/>
			</g>
			<g class="st13">
				<path class="st9" d="M296.34,266.53c-0.3,0.13-0.66-0.02-0.78-0.33c-2.98-7.54-0.18-10.45-0.06-10.57l0.49,0.49
					c0.19,0.19,0.23,0.47,0.1,0.7c-0.53,0.9-1.54,3.6,0.57,8.94C296.78,266.06,296.64,266.4,296.34,266.53L296.34,266.53z"/>
			</g>
			<g class="st13">
				<path class="st9" d="M273.74,264.87c-0.38,0.01-0.49-0.42-0.55-0.61c-0.41-1.28-1.1-2.37-1.48-2.95
					c-0.16-0.25-0.1-0.59,0.14-0.76l0.03-0.02c0.27-0.2,0.64-0.13,0.82,0.15c0.16,0.25,0.37,0.59,0.59,0.99
					c0.17-1.23,0.55-2.73,1.34-3.99c0.18-0.29,0.57-0.37,0.84-0.16l0.03,0.02c0.24,0.19,0.28,0.52,0.12,0.78
					c-1.44,2.3-1.29,5.7-1.29,5.73C274.32,264.29,274.18,264.87,273.74,264.87z"/>
			</g>
			<path class="st11" d="M304.3,291.4c-12.72,1.49-25.69,1.58-29.42,0.24c-0.32-0.11-0.66,0.09-0.74,0.41l-0.3,1.2
				c-0.07,0.29,0.08,0.6,0.37,0.69c2.3,0.74,6.2,1.05,10.74,1.07c6.66,0.03,14.69-0.58,21-1.36c0.22-0.03,0.32-0.29,0.19-0.47
				l-1.2-1.52C304.78,291.47,304.54,291.37,304.3,291.4z"/>
			<g>
				<g>
					<path class="st11" d="M285.25,295.72h-2.97v-0.7h2.97c0.16,0,0.3-0.13,0.3-0.3v-1.83c0-0.16-0.13-0.3-0.3-0.3h-2.97v-0.7h2.97
						c0.55,0,0.99,0.45,0.99,0.99v1.83C286.24,295.27,285.8,295.72,285.25,295.72z"/>
				</g>
				<g class="st21">
					<path class="st9" d="M285.25,295.72h-2.97v-0.7h2.97c0.16,0,0.3-0.13,0.3-0.3v-1.83c0-0.16-0.13-0.3-0.3-0.3h-2.97v-0.7h2.97
						c0.55,0,0.99,0.45,0.99,0.99v1.83C286.24,295.27,285.8,295.72,285.25,295.72z"/>
				</g>
			</g>
			<path class="st26" d="M299.37,233.64c-1.43,5.98-1.92,8.54-5.46,11.11c-5.33,3.87-12.22,0.82-12.56-5.47
				c-0.31-5.66,2.09-14.49,8.32-15.86C295.8,222.07,300.81,227.66,299.37,233.64z"/>
			<path class="st11" d="M289.37,236.08c-0.09,0.49-0.42,0.85-0.74,0.79c-0.32-0.06-0.51-0.5-0.42-0.99
				c0.09-0.49,0.42-0.84,0.74-0.79C289.27,235.14,289.46,235.58,289.37,236.08z"/>
			<path class="st11" d="M283.3,235.09c-0.09,0.49-0.42,0.85-0.74,0.79c-0.32-0.06-0.51-0.5-0.42-0.99
				c0.09-0.49,0.42-0.85,0.74-0.79C283.2,234.15,283.39,234.6,283.3,235.09z"/>
			<path class="st11" d="M283.01,234.15l-1.12-0.55C281.89,233.6,282.34,234.63,283.01,234.15z"/>
			<path class="st27" d="M284.77,235.49c0,0-1.21,1.97-2.31,2.83c0.54,0.72,1.7,0.64,1.7,0.64L284.77,235.49z"/>
			<path class="st11" d="M287.7,241.35c-0.26,0-0.54-0.02-0.84-0.08c-0.08-0.01-0.13-0.09-0.12-0.17c0.01-0.08,0.09-0.13,0.17-0.12
				c2.16,0.38,3.44-0.95,3.45-0.96c0.06-0.06,0.15-0.06,0.21-0.01c0.06,0.06,0.06,0.15,0.01,0.21
				C290.53,240.27,289.5,241.35,287.7,241.35z"/>
			<path class="st11" d="M291.11,233.29c-0.07-0.02-0.14-0.07-0.18-0.15c-0.58-1.17-1.65-1.31-1.67-1.31
				c-0.16-0.02-0.28-0.16-0.26-0.33c0.02-0.16,0.16-0.28,0.33-0.26c0.06,0.01,1.4,0.18,2.12,1.64c0.07,0.15,0.01,0.32-0.13,0.39
				C291.26,233.31,291.18,233.31,291.11,233.29z"/>
			<path class="st11" d="M281.57,232.05c-0.07-0.01-0.14-0.05-0.19-0.11c-0.1-0.13-0.07-0.31,0.06-0.41
				c1.29-0.98,2.57-0.54,2.63-0.52c0.15,0.05,0.23,0.22,0.18,0.38c-0.05,0.15-0.22,0.23-0.37,0.18c-0.05-0.02-1.05-0.35-2.08,0.44
				C281.73,232.04,281.64,232.06,281.57,232.05z"/>
			<path class="st11" d="M289.08,235.13l-1.12-0.55C287.96,234.58,288.4,235.62,289.08,235.13z"/>
			<path class="st11" d="M287.51,223.52c0,0-8.36,5.98-3.25,5.45c0,0,1.05,2.06,4.26,0.7c0,0,2.76,2.46,3.87,0.85
				c0,0,3.74,2.2,2.96-1.87c0,0,1.28,1.21,1.12,4.96s0.79,4.34,0.79,4.34l1.51-0.17c0,0,4.89-11.16-3.96-14.61
				C294.81,223.16,290.28,221.31,287.51,223.52z"/>
			<g>
				<path class="st5" d="M279.29,234.55c-0.06,1.64,0.95,3.02,2.26,3.07c1.31,0.05,2.42-1.24,2.48-2.89c0-0.04-0.01-0.08,0-0.12
					c0.44-0.37,1.09-0.35,1.51,0.04c0,0.04-0.02,0.09-0.02,0.13c-0.06,1.64,1.22,3.03,2.86,3.09c1.58,0.06,2.91-1.13,3.06-2.68
					l6.85,1.14l0.01-0.37l-6.85-1.14c-0.04-1.56-1.27-2.84-2.85-2.91c-1.45-0.06-2.7,0.94-3.01,2.31c-0.48-0.32-1.09-0.34-1.59-0.06
					c-0.15-1.39-1.08-2.47-2.23-2.51C280.47,231.62,279.35,232.91,279.29,234.55z M285.89,234.8c0.06-1.44,1.27-2.56,2.71-2.51
					c1.44,0.06,2.56,1.27,2.51,2.71c-0.06,1.44-1.27,2.56-2.71,2.51C286.96,237.46,285.83,236.24,285.89,234.8z M279.66,234.56
					c0.06-1.44,1-2.57,2.1-2.53c1.1,0.04,1.96,1.25,1.9,2.68c-0.05,1.44-1,2.57-2.1,2.53C280.45,237.21,279.6,236,279.66,234.56z"/>
				<path class="st12" d="M279.29,234.55c-0.06,1.64,0.95,3.02,2.26,3.07c1.31,0.05,2.42-1.24,2.48-2.89c0-0.04-0.01-0.08,0-0.12
					c0.44-0.37,1.09-0.35,1.51,0.04c0,0.04-0.02,0.09-0.02,0.13c-0.06,1.64,1.22,3.03,2.86,3.09c1.58,0.06,2.91-1.13,3.06-2.68
					l6.85,1.14l0.01-0.37l-6.85-1.14c-0.04-1.56-1.27-2.84-2.85-2.91c-1.45-0.06-2.7,0.94-3.01,2.31c-0.48-0.32-1.09-0.34-1.59-0.06
					c-0.15-1.39-1.08-2.47-2.23-2.51C280.47,231.62,279.35,232.91,279.29,234.55z M285.89,234.8c0.06-1.44,1.27-2.56,2.71-2.51
					c1.44,0.06,2.56,1.27,2.51,2.71c-0.06,1.44-1.27,2.56-2.71,2.51C286.96,237.46,285.83,236.24,285.89,234.8z M279.66,234.56
					c0.06-1.44,1-2.57,2.1-2.53c1.1,0.04,1.96,1.25,1.9,2.68c-0.05,1.44-1,2.57-2.1,2.53C280.45,237.21,279.6,236,279.66,234.56z"/>
			</g>
			<path class="st26" d="M299.81,239.21c-0.55,1.17-1.52,1.91-2.42,2.16c-1.37,0.38-2.04-1.12-1.65-2.64
				c0.35-1.37,1.48-3.21,2.84-2.91C299.92,236.12,300.44,237.87,299.81,239.21z"/>
		</g>
		<g>
			<g>
				<polygon class="st11" points="292.17,255.84 293.17,259.04 276.47,264.23 275.53,263.69 274.73,262.31 275.27,261.09 
					276.88,260.59 				"/>
				<polygon class="st14" points="292.17,255.84 293.17,259.04 276.47,264.23 275.53,263.69 274.73,262.31 275.27,261.09 
					276.88,260.59 				"/>
			</g>
			<path class="st5" d="M274.56,263.29l6.26,20.15c0.44,1.05,1.67,1.55,2.76,1.21l15.88-4.93c0.27-0.08,0.41-0.37,0.33-0.63l0,0
				l-6.26-20.15l-16.98,5.27l-1.02-0.52L274.56,263.29z"/>
			<path class="st11" d="M276.44,264.15l-0.91-0.46l-0.97-0.4l6.26,20.15c0.34,0.82,1.16,1.29,2.02,1.31L276.44,264.15z"/>
			<g>
				<path class="st5" d="M293.2,259.56l-15.88,4.93c-1.09,0.34-2.31-0.15-2.76-1.21c-0.51-1.21,0.14-2.57,1.37-2.95l15.98-4.96
					c0.27-0.08,0.55,0.07,0.63,0.33l0,0c0.08,0.27-0.07,0.55-0.33,0.63l-15.91,4.94c-0.59,0.18-1,0.77-0.87,1.38
					c0.14,0.7,0.85,1.1,1.51,0.9l15.98-4.96c0.27-0.08,0.55,0.07,0.63,0.33l0,0C293.61,259.2,293.47,259.48,293.2,259.56z"/>
			</g>
			<g class="st20">
				<path d="M293.2,259.56l-15.88,4.93c-1.09,0.34-2.31-0.15-2.76-1.21c-0.51-1.21,0.14-2.57,1.37-2.95l15.98-4.96
					c0.27-0.08,0.55,0.07,0.63,0.33l0,0c0.08,0.27-0.07,0.55-0.33,0.63l-15.91,4.94c-0.59,0.18-1,0.77-0.87,1.38
					c0.14,0.7,0.85,1.1,1.51,0.9l15.98-4.96c0.27-0.08,0.55,0.07,0.63,0.33l0,0C293.61,259.2,293.47,259.48,293.2,259.56z"/>
			</g>
			
				<rect x="282.09" y="264.14" transform="matrix(0.955 -0.2966 0.2966 0.955 -66.3481 97.0161)" class="st6" width="9" height="6.1"/>
		</g>
		<g>
			<g>
				<polygon class="st11" points="294.1,259.65 295.19,263.18 276.84,268.87 275.81,268.28 274.93,266.77 275.53,265.42 
					277.29,264.87 				"/>
				<polygon class="st14" points="294.1,259.65 295.19,263.18 276.84,268.87 275.81,268.28 274.93,266.77 275.53,265.42 
					277.29,264.87 				"/>
			</g>
			<path class="st5" d="M274.74,267.84l6.88,22.14c0.49,1.16,1.83,1.7,3.03,1.33l17.45-5.42c0.29-0.09,0.46-0.4,0.36-0.69l0,0
				l-6.88-22.14l-18.66,5.79l-1.12-0.57L274.74,267.84z"/>
			<path class="st11" d="M276.81,268.79l-1-0.51l-1.07-0.44l6.88,22.14c0.38,0.9,1.28,1.42,2.22,1.44L276.81,268.79z"/>
			<g>
				<path class="st5" d="M295.22,263.75l-17.45,5.42c-1.2,0.37-2.54-0.17-3.03-1.33c-0.56-1.33,0.16-2.82,1.5-3.24l17.55-5.45
					c0.29-0.09,0.6,0.07,0.69,0.36l0,0c0.09,0.29-0.07,0.6-0.36,0.69l-17.48,5.43c-0.65,0.2-1.09,0.85-0.96,1.51
					c0.15,0.76,0.93,1.21,1.66,0.98l17.55-5.45c0.29-0.09,0.6,0.07,0.69,0.37l0,0C295.68,263.35,295.52,263.66,295.22,263.75z"/>
			</g>
			<g class="st20">
				<path d="M295.22,263.75l-17.45,5.42c-1.2,0.37-2.54-0.17-3.03-1.33c-0.56-1.33,0.16-2.82,1.5-3.24l17.55-5.45
					c0.29-0.09,0.6,0.07,0.69,0.36l0,0c0.09,0.29-0.07,0.6-0.36,0.69l-17.48,5.43c-0.65,0.2-1.09,0.85-0.96,1.51
					c0.15,0.76,0.93,1.21,1.66,0.98l17.55-5.45c0.29-0.09,0.6,0.07,0.69,0.37l0,0C295.68,263.35,295.52,263.66,295.22,263.75z"/>
			</g>
			
				<rect x="283.02" y="268.78" transform="matrix(0.955 -0.2966 0.2966 0.955 -67.7505 97.6453)" class="st6" width="9.89" height="6.7"/>
		</g>
		<g>
			<g>
				<path class="st26" d="M287.78,274.64l-2.48-3.33l-4.56,5.07c0,0,3.04,2.73,6.22,3.01l0.46-0.77
					C288.16,277.36,288.3,275.9,287.78,274.64z"/>
				<path class="st26" d="M280.73,271.07l-1.35,1.96c-0.62,0.89-0.4,2.11,0.49,2.74l0.87,0.61l4.56-5.07l-2.16-0.93
					C282.27,270,281.27,270.29,280.73,271.07z"/>
			</g>
			<path class="st26" d="M308.51,269c-0.31-1.98-0.78-3.89-1.34-5.75c-0.29-0.93-0.58-1.85-0.92-2.76
				c-0.17-0.45-0.34-0.91-0.53-1.36c-0.2-0.47-0.37-0.87-0.62-1.42c-1.03-2.24-3.65-3.35-5.98-2.45c-2.44,0.93-3.66,3.66-2.73,6.1
				l0.08,0.21l0.4,1.05l0.42,1.14c0.27,0.77,0.54,1.54,0.78,2.31c0.5,1.55,0.91,3.1,1.24,4.63c0.32,1.52,0.54,3.03,0.6,4.42
				c0.03,0.75,0,1.44-0.07,2.09c-0.03,0-0.06,0-0.09,0c-1.11-0.05-2.45-0.24-3.78-0.53c-1.35-0.27-2.72-0.62-4.11-0.99l-4.18-1.15
				l-0.09-0.03c-0.92-0.25-1.93,0.07-2.53,0.88c-0.78,1.05-0.56,2.54,0.49,3.32c1.3,0.97,2.59,1.78,3.96,2.57
				c1.36,0.78,2.77,1.5,4.26,2.16c1.5,0.63,3.05,1.23,4.89,1.61c0.93,0.18,1.93,0.33,3.17,0.27c0.63-0.03,1.32-0.12,2.12-0.39
				c0.79-0.26,1.73-0.74,2.55-1.54c0.33-0.32,0.61-0.71,0.81-1.15l0.08-0.18c1.06-2.35,1.45-4.68,1.53-6.84
				C309.02,273.04,308.83,270.98,308.51,269z"/>
			<path class="st5" d="M297.52,267.5c0,0,4.6-2.74,11.1-1.75c0,0-2.39-13.06-9.13-11.56C292.13,255.83,297.52,267.5,297.52,267.5z"
				/>
			<path class="st22" d="M297.52,267.5c0,0,4.6-2.74,11.1-1.75c0,0-2.39-13.06-9.13-11.56C292.13,255.83,297.52,267.5,297.52,267.5z
				"/>
			<g class="st13">
				<path class="st9" d="M298.32,265.67L298.32,265.67c-0.18-0.3-0.07-0.68,0.24-0.83c1.33-0.64,4.82-2.03,8.59-1.02
					c0.32,0.09,0.5,0.44,0.39,0.75l0,0c-0.1,0.3-0.42,0.46-0.73,0.38c-3.36-0.88-6.55,0.39-7.73,0.95
					C298.8,266.04,298.47,265.94,298.32,265.67z"/>
			</g>
		</g>
	</g>
</g>
<g id="Character_2">
	<g>
		<path class="st11" d="M160.29,304.49c0,0-15.55,35.61-2.42,40.06c13.14,4.45,8.02-40.76,8.02-40.76l-2.3,1.01
			c0,0,3.09,37.63-5.06,37.3c-8.14-0.33,3.09-37.43,3.09-37.43L160.29,304.49z"/>
		<polygon class="st11" points="184.24,261.59 179.88,270.29 182.99,272.36 186.18,262.52 		"/>
		<path class="st28" d="M232.03,257.67c-0.77-0.6-1.88-0.45-2.48,0.32l-0.04,0.06c-1.77,2.3-3.64,4.64-5.56,6.62
			c-0.48,0.49-0.96,0.96-1.44,1.36c-0.3,0.25-0.61,0.48-0.89,0.66c-1.39-2.54-2.8-5.07-4.22-7.58c-1.46-2.6-2.97-5.21-4.43-7.73
			l-0.03-0.04c-0.96-1.64-3.05-2.25-4.74-1.34c-1.73,0.93-2.37,3.08-1.45,4.8c1.47,2.73,2.99,5.31,4.59,7.89
			c1.59,2.57,3.24,5.11,4.93,7.62l0.4,0.59c0.2,0.29,0.46,0.6,0.77,0.9c0.6,0.6,1.6,1.18,2.64,1.35c1.04,0.17,1.95-0.02,2.63-0.27
			c0.68-0.25,1.2-0.56,1.66-0.87c0.9-0.62,1.55-1.28,2.14-1.93c0.59-0.66,1.1-1.32,1.58-1.98c1.89-2.68,3.28-5.42,4.5-8.34
			C232.89,259.03,232.68,258.17,232.03,257.67z"/>
		<path class="st28" d="M233.65,251.5l-1.85,0.68c-0.7,0.26-1.23,0.83-1.42,1.55l-0.92,3.34c-0.37,1.34-0.06,2.77,0.81,3.84
			l0.54,0.66c3.15-0.92,5.88-4.22,5.88-4.22l0.88-0.86c0.79-0.76,0.83-1.94,0.1-2.71l-1.68-1.77
			C235.41,251.4,234.48,251.19,233.65,251.5z"/>
		<g>
			<path class="st5" d="M208.51,245.6c6.42,1.18,7.47,5.5,12.27,14.15c-3.21,6.32-9.22,7.27-9.22,7.27S200.47,251.9,208.51,245.6z"
				/>
			<path class="st22" d="M208.51,245.6c6.42,1.18,7.47,5.5,12.27,14.15c-3.21,6.32-9.22,7.27-9.22,7.27S200.47,251.9,208.51,245.6z"
				/>
			<path class="st20" d="M215.48,257.73c0.54,2.44,1.4,4.59,2.14,6.15c-2.94,2.64-6.07,3.14-6.07,3.14s-2.62-3.56-4.38-7.95
				L215.48,257.73z"/>
			<g class="st13">
				<path class="st9" d="M217.37,262.52l-0.31-0.5l-0.31-0.5c0.01-0.01,1.18-0.75,1.97-2.35c0.13-0.27,0.46-0.38,0.74-0.27l0,0
					c0.33,0.13,0.46,0.51,0.31,0.83C218.82,261.62,217.43,262.48,217.37,262.52z"/>
			</g>
		</g>
		<path class="st11" d="M189.19,233.31c0,0-5.6-2.68-6.2,6.59c-0.6,9.27-4.54,10.58-4.54,10.58s9.32,0.59,11.39-6.5
			C191.91,236.9,193.16,235.11,189.19,233.31z"/>
		<path class="st5" d="M190.95,234.24c-0.34,0.41-1.11,0.32-1.73-0.19c-0.61-0.51-0.83-1.26-0.49-1.67
			c0.34-0.41,1.11-0.32,1.73,0.19C191.07,233.09,191.29,233.83,190.95,234.24z"/>
		<path class="st28" d="M213.87,285.95c0,0,4.45,34.63,4.06,56.62c1.54,20.62,2.84,63.91,5.18,68.59c-0.08,1.05-3.76,1.29-4.75,0.65
			c0,0-15.42-35.76-13.35-69.24c-14.16-34.93-13.32-56.62-13.32-56.62H213.87z"/>
		<g>
			<path class="st5" d="M210.32,388.81c4.57-1.24,10.43-1.83,10.43-1.83c0.61,0.09,0.74,3.13,0.57,3.51
				c-0.01,0.03-0.08,0.06-0.18,0.1c0.23,4.62,1.19,14.07,2.29,20.51c0,0-4.83,1.01-6.02,0.82c-1.66-3.76-5.02-15.27-6.15-19.47
				c-0.06,0-0.11-0.01-0.14-0.02C210.5,390.97,210.32,389.34,210.32,388.81z"/>
			<path class="st12" d="M210.32,388.81c4.57-1.24,10.43-1.83,10.43-1.83c0.61,0.09,0.74,3.13,0.57,3.51
				c-0.01,0.03-0.08,0.06-0.18,0.1c0.23,4.62,1.19,14.07,2.29,20.51c0,0-4.83,1.01-6.02,0.82c-1.66-3.76-5.02-15.27-6.15-19.47
				c-0.06,0-0.11-0.01-0.14-0.02C210.5,390.97,210.32,389.34,210.32,388.81z"/>
		</g>
		<path class="st11" d="M231.97,414.94c-4.72,0.81-5.26,0.59-7.94,0.96c-2.31,0.31-2.49,0.85-4.8,1.25
			c-1.53,0.26-2.4-1.37-2.34-2.72c0.04-0.81,0.2-1.76,0.19-2.76c-0.01-0.54,0.34-0.98,0.89-1.08l4.91-0.85
			c0.37-0.06,0.78,0.03,1.11,0.28c2.06,1.55,4.41,2.52,7.81,2.18C234.43,411.93,233.86,414.61,231.97,414.94z"/>
		<path class="st28" d="M207.84,285.95c0,0-10.13,39.09-14.14,58.28c-4.21,20.16-9.76,54.04-8.59,67.43
			c-1.13,0.67-3.22,0.74-5.5,0.04c0,0-9.04-45,0.06-66.58c-3.99-47.75,8.64-59.17,8.64-59.17H207.84z"/>
		<g>
			<path class="st5" d="M176.08,387.23c4.71-0.49,10.59-0.14,10.59-0.14c0.59,0.18,0.23,3.21,0,3.55c-0.02,0.03-0.09,0.05-0.2,0.07
				c-0.51,4.6-1.07,14.08-1.02,20.61c0,0-4.93,0.22-6.08-0.15c-1.03-3.98-2.51-15.88-2.96-20.21c-0.06-0.01-0.1-0.02-0.13-0.04
				C175.91,389.4,176,387.76,176.08,387.23z"/>
			<path class="st12" d="M176.08,387.23c4.71-0.49,10.59-0.14,10.59-0.14c0.59,0.18,0.23,3.21,0,3.55c-0.02,0.03-0.09,0.05-0.2,0.07
				c-0.51,4.6-1.07,14.08-1.02,20.61c0,0-4.93,0.22-6.08-0.15c-1.03-3.98-2.51-15.88-2.96-20.21c-0.06-0.01-0.1-0.02-0.13-0.04
				C175.91,389.4,176,387.76,176.08,387.23z"/>
		</g>
		<path class="st11" d="M191.12,417.15c-4.9,0-4.55-0.08-7.31-0.17c-2.36-0.08-2.9,0.21-4.8,0.17c-1.58-0.03-1.64-1.55-1.28-3.29
			c0.14-0.67,0.35-1.45,0.54-2.41c0.11-0.56,0.59-0.95,1.16-0.95h5.73c0.42,0,0.83,0.2,1.08,0.55c1.21,1.65,3.18,2.86,5.69,3.2
			C194.6,414.6,193.07,417.15,191.12,417.15z"/>
		<path class="st5" d="M216.24,254.24c0.08,2.44,0.19,5.54-0.17,11.38c-0.2,4.94,0.65,19-2.84,19.89
			c-2.7,1.58-16.41,1.01-25.16-0.13c-4.16-1.22,2.89-12.15-4.83-32.62c-1.35-3.57,1.35-7.16,5.27-7.54c1.05-0.1,2.16-0.18,3.3-0.24
			c4.43-0.2,8.07-0.34,12,0c1.3,0.11,2.66,0.27,3.95,0.43C212.42,246.03,216.1,249.86,216.24,254.24z"/>
		<path class="st22" d="M216.24,254.24c0.08,2.44,0.19,5.54-0.17,11.38c-0.2,4.94,0.65,19-2.84,19.89
			c-2.7,1.58-16.41,1.01-25.16-0.13c-4.16-1.22,2.89-12.15-4.83-32.62c-1.35-3.57,1.35-7.16,5.27-7.54c1.05-0.1,2.16-0.18,3.3-0.24
			c4.43-0.2,8.07-0.34,12,0c1.3,0.11,2.66,0.27,3.95,0.43C212.42,246.03,216.1,249.86,216.24,254.24z"/>
		<path class="st20" d="M189.34,258.18c0.44,4.53-1.54,9.06-2.42,10.8c-0.17-2.29-0.51-4.82-1.11-7.58L189.34,258.18z"/>
		<g>
			<path class="st5" d="M200.65,250.82c0,0,1.45,3.94,1.65,13.8c0.01,0.56,0.46,1.01,1.02,1.01l0,0c0.57,0,1.02-0.46,1.02-1.02
				c0-1.95-0.16-6.63-1.33-13.79l-0.87,0.85L200.65,250.82z"/>
			<path class="st23" d="M200.65,250.82c0,0,1.45,3.94,1.65,13.8c0.01,0.56,0.46,1.01,1.02,1.01l0,0c0.57,0,1.02-0.46,1.02-1.02
				c0-1.95-0.16-6.63-1.33-13.79l-0.87,0.85L200.65,250.82z"/>
		</g>
		<g class="st13">
			<path class="st9" d="M214.81,257.23c-0.71-4.41-1.99-6.82-2.57-7.72c-0.16-0.25-0.11-0.57,0.12-0.76l0,0
				c0.27-0.23,0.68-0.18,0.87,0.12c0.66,1.02,2,3.57,2.74,8.18c0.05,0.33-0.18,0.64-0.5,0.68l0,0
				C215.16,257.78,214.86,257.55,214.81,257.23z"/>
		</g>
		<path class="st5" d="M187.68,286.66c0,0-11.99,5.99-10.21,56.03c0,0,18.32,5.32,41.77-1.77c0,0-2.27-37.74-4.93-54.72
			L187.68,286.66z"/>
		<path class="st11" d="M214.24,287.84c-8.94,0.99-18.26,0.94-27.19-0.05c-0.4-0.04-0.63-0.47-0.47-0.84
			c0.22-0.51,0.44-1.02,0.66-1.53c0.1-0.24,0.34-0.38,0.58-0.35c8.59,0.92,17.56,0.95,26.15,0c0.31-0.04,0.6,0.2,0.63,0.53
			c0.05,0.53,0.11,1.05,0.16,1.58C214.8,287.51,214.57,287.8,214.24,287.84z"/>
		<path class="st20" d="M202.21,313.14h-0.1l-4.54,31.4c3.32-0.12,6.95-0.46,10.82-1.1C201.07,339.62,201.87,318.65,202.21,313.14z"
			/>
		<path class="st28" d="M200.79,237.34c-0.27,6.8,3.55,7.63,3.55,7.63s-0.9,6.45-2.2,6.7c-1.3,0.25-9.26-7.19-9.26-7.19
			c1.58-3.5,0.59-10.15,0.59-10.15L200.79,237.34z"/>
		<g>
			<g>
				<path class="st11" d="M205.16,289.31h-3.36v-0.79h3.36c0.18,0,0.34-0.15,0.34-0.33v-2.08c0-0.18-0.15-0.33-0.34-0.33h-3.36
					v-0.79h3.36c0.62,0,1.12,0.5,1.12,1.12v2.08C206.28,288.8,205.78,289.31,205.16,289.31z"/>
			</g>
			<g class="st21">
				<path class="st9" d="M205.16,289.31h-3.36v-0.79h3.36c0.18,0,0.34-0.15,0.34-0.33v-2.08c0-0.18-0.15-0.33-0.34-0.33h-3.36v-0.79
					h3.36c0.62,0,1.12,0.5,1.12,1.12v2.08C206.28,288.8,205.78,289.31,205.16,289.31z"/>
			</g>
		</g>
		<path class="st20" d="M200.79,237.34l-6.66-2.74c0.4,0.77,2.96,5.38,6.79,5.31C200.8,239.17,200.75,238.32,200.79,237.34z"/>
		<path class="st11" d="M191.29,213.91c0,0,10.55-5.49,16.05,0.62c5.49,6.11-12.25,8.14-12.57,14.61c-0.32,6.47-3.29,7.81-7.29,1.28
			C183.47,223.89,187.08,214.57,191.29,213.91z"/>
		<path class="st28" d="M189.34,223.73c1.17,6.24,1.54,8.89,5.09,11.88c5.35,4.5,12.71,2.12,13.41-4.24
			c0.63-5.72-1.39-14.96-7.82-17.02C193.7,212.33,188.17,217.5,189.34,223.73z"/>
		<path class="st11" d="M199.22,224.77c0.08,0.53,0.41,0.94,0.75,0.91c0.34-0.02,0.55-0.47,0.47-1c-0.08-0.53-0.41-0.94-0.75-0.91
			C199.36,223.8,199.15,224.25,199.22,224.77z"/>
		<path class="st11" d="M205.59,224.4c0.08,0.53,0.41,0.94,0.75,0.91c0.34-0.02,0.55-0.47,0.47-1c-0.08-0.53-0.41-0.94-0.75-0.91
			C205.73,223.42,205.52,223.87,205.59,224.4z"/>
		<path class="st11" d="M205.92,223.44l1.19-0.46C207.11,222.98,206.62,224.02,205.92,223.44z"/>
		<path class="st29" d="M203.94,225.39c0,0,1.2,2.21,2.33,3.23c-0.59,0.7-1.79,0.49-1.79,0.49L203.94,225.39z"/>
		<path class="st11" d="M201.79,231.28c0.27,0.03,0.57,0.04,0.88,0.01c0.08-0.01,0.14-0.08,0.13-0.17
			c-0.01-0.09-0.09-0.15-0.17-0.14c-2.27,0.17-3.56-1.37-3.57-1.39c-0.06-0.07-0.15-0.08-0.22-0.03c-0.06,0.05-0.07,0.15-0.01,0.22
			C198.87,229.85,199.91,231.09,201.79,231.28z"/>
		<path class="st11" d="M197.44,221.94c0.08,0,0.16-0.03,0.22-0.09c0.88-0.99,2.01-0.78,2.02-0.77c0.17,0.03,0.32-0.08,0.34-0.24
			c0.02-0.17-0.1-0.33-0.27-0.37c-0.06-0.01-1.47-0.28-2.56,0.95c-0.11,0.12-0.09,0.32,0.04,0.44
			C197.29,221.91,197.37,221.94,197.44,221.94z"/>
		<path class="st11" d="M207.02,221.37c0.08,0.01,0.15-0.02,0.21-0.07c0.12-0.11,0.13-0.3,0.01-0.44c-1.18-1.32-2.58-1.18-2.64-1.18
			c-0.17,0.02-0.28,0.17-0.25,0.34c0.03,0.17,0.19,0.29,0.36,0.27c0.05-0.01,1.15-0.1,2.08,0.95
			C206.86,221.32,206.94,221.36,207.02,221.37z"/>
		<path class="st11" d="M199.55,223.81l1.19-0.46C200.74,223.36,200.25,224.39,199.55,223.81z"/>
		<path class="st11" d="M191.94,229.54c0,0,2.87,1.55,2.03-9.19c0,0,2,0,12.55-1.97c0,0-4.23-8.47-14.57-3.55
			C191.94,214.83,181.87,221.28,191.94,229.54z"/>
		<path class="st28" d="M188.74,229.75c0.64,1.28,1.69,2.07,2.65,2.32c1.45,0.39,2.08-1.28,1.6-2.94c-0.44-1.5-1.71-3.5-3.13-3.14
			C188.46,226.35,188.01,228.29,188.74,229.75z"/>
		<path class="st5" d="M191.97,217.24c-0.67,0.47,0.66,3.54,0.85,3.81c0.19,0.27,0.88,0.11,1.55-0.36c0.67-0.47,1.06-1.06,0.88-1.33
			C195.06,219.1,192.64,216.78,191.97,217.24z M194.03,220.21c-0.48,0.34-0.98,0.45-1.11,0.26c-0.13-0.19-1.09-2.41-0.61-2.74
			c0.48-0.33,2.22,1.34,2.36,1.53C194.8,219.45,194.52,219.88,194.03,220.21z"/>
		<g>
			<path class="st5" d="M192.78,243.99c0,0,5.91,2.68,9.24,7.19c0,0,1.15-3.05,1.74-6.8l2.16,0.62c0,0,3.08,1.39,2.34,5.42
				c0,0-3.23-0.8-6.24,2.1c0,0-6.24-5.12-8.87-0.85c0,0,0.59-3.41-2.8-6.6L192.78,243.99z"/>
			<path class="st6" d="M192.78,243.99c0,0,5.91,2.68,9.24,7.19c0,0,1.15-3.05,1.74-6.8l2.16,0.62c0,0,3.08,1.39,2.34,5.42
				c0,0-3.23-0.8-6.24,2.1c0,0-6.24-5.12-8.87-0.85c0,0,0.59-3.41-2.8-6.6L192.78,243.99z"/>
		</g>
		<g>
			<path class="st5" d="M179.11,305.12c-5.88,3.21-22.34,0.93-26.43-4.37c-5.04-6.52,2.46-27.21,9.45-31.57
				c5.01-3.13,19.93-1,23.29,3.85C190.08,279.74,186.29,301.2,179.11,305.12z"/>
			<path class="st20" d="M179.11,305.12c-5.88,3.21-22.34,0.93-26.43-4.37c-5.04-6.52,2.46-27.21,9.45-31.57
				c5.01-3.13,19.93-1,23.29,3.85C190.08,279.74,186.29,301.2,179.11,305.12z"/>
			<path class="st15" d="M162.13,269.17c-1.2,0.75-2.42,1.99-3.59,3.56c-1.43,1.92-0.42,4.78,1.94,5.2c0.02,0,0.04,0.01,0.05,0.01
				l6.36,1.05c3.18,0.53,6.35-0.84,8.23-3.45c2.64-3.66,6.5-4.06,9.02-3.86C179.25,267.81,166.65,266.35,162.13,269.17z"/>
			<path class="st11" d="M161.98,276.56c-0.84,1.79-1.88,4.5-2.67,8.16c-0.19,0.87,0.38,1.73,1.26,1.89l0,0
				c0.84,0.15,1.64-0.39,1.82-1.22c0.74-3.4,1.69-5.88,2.44-7.48c0.45-0.95-0.13-2.07-1.16-2.24h0
				C162.97,275.55,162.28,275.92,161.98,276.56z"/>
			<path class="st15" d="M155.69,288.55l11.29,2.36c1.06,0.22,1.75,1.24,1.58,2.3l-0.89,5.37c-0.47,2.83-3.28,4.65-6.05,3.91l-6-1.6
				c-2.54-0.68-4.08-3.25-3.48-5.81l1.18-5.02C153.56,288.99,154.62,288.32,155.69,288.55z"/>
			<path class="st20" d="M185.5,273.16c-9.04-2.14-13.89,10.3-15.68,23.37c-0.82,5.97,0.55,8.79,2.41,10.05
				c2.79-0.09,5.25-0.56,6.89-1.46C186.25,301.22,190.03,280.01,185.5,273.16z"/>
		</g>
		<path class="st11" d="M190.25,244.78c0,0,7.38,11.44,6.38,29.91c-0.93,17.1-19.39,28.89-19.39,28.89l-2.77-1.49
			c0,0,20.05-12.31,19.8-30.92c-0.25-18.62-5.49-26.3-5.49-26.3L190.25,244.78z"/>
		<g>
			<path class="st28" d="M195.54,273.86l-0.05,0c-1.51,0.07-3.08,0.15-4.61,0.17c-1.53,0.03-3.06,0.03-4.53-0.05
				c-1.46-0.07-2.93-0.23-4.09-0.53c-0.21-0.05-0.4-0.12-0.58-0.19c0.75-2.82,1.68-5.64,2.72-8.45c0.59-1.57,1.19-3.14,1.83-4.7
				c0.61-1.55,1.31-3.14,1.94-4.6l0.03-0.07c0.74-1.73,0-3.75-1.71-4.58c-1.76-0.86-3.88-0.13-4.74,1.63
				c-0.82,1.69-1.48,3.3-2.16,4.97c-0.66,1.66-1.27,3.35-1.82,5.05c-0.57,1.7-1.06,3.44-1.51,5.19c-0.46,1.75-0.82,3.55-1.13,5.36
				l-0.02,0.14c-0.03,0.17-0.04,0.35-0.04,0.54c0.02,0.92,0.34,2,0.92,2.81c0.57,0.81,1.27,1.35,1.88,1.69
				c1.25,0.68,2.3,0.88,3.28,1.04c1.94,0.27,3.66,0.17,5.35,0.03c1.68-0.17,3.31-0.43,4.92-0.76c1.61-0.36,3.17-0.73,4.76-1.24
				c0.74-0.24,1.26-0.95,1.23-1.76C197.34,274.57,196.52,273.82,195.54,273.86z"/>
			<path class="st28" d="M199.13,269.63l-1.97,0.01c-0.74,0-1.44,0.37-1.86,0.98l-1.99,2.84c-0.8,1.13-1,2.58-0.53,3.89l0.29,0.81
				c3.27,0.2,6.96-1.99,6.96-1.99l1.12-0.51c1-0.45,1.44-1.55,1.01-2.52l-0.98-2.23C200.83,270.13,200.02,269.63,199.13,269.63z"/>
			<g>
				<path class="st5" d="M188.26,245.28c-4.3,0.66-9.12,5.13-12.64,13.78c4.07,7,10.12,7.96,10.12,7.96S194.17,255.29,188.26,245.28
					z"/>
				<path class="st22" d="M188.26,245.28c-4.3,0.66-9.12,5.13-12.64,13.78c4.07,7,10.12,7.96,10.12,7.96
					S194.17,255.29,188.26,245.28z"/>
				<g class="st13">
					<path class="st9" d="M185.04,265.06c-3.92-1.71-6.69-4.8-7.67-6c-0.21-0.26-0.16-0.65,0.11-0.85l0,0
						c0.25-0.18,0.6-0.14,0.8,0.1c0.91,1.11,3.57,4.06,7.21,5.66c0.29,0.13,0.44,0.46,0.32,0.76l0,0
						C185.7,265.03,185.34,265.19,185.04,265.06z"/>
				</g>
				<g class="st13">
					<path class="st9" d="M189.96,256.98L189.96,256.98c-0.32-0.06-0.53-0.36-0.48-0.68c0.79-5.26-0.61-8.08-1.24-9.03
						c-0.15-0.23-0.11-0.55,0.09-0.74l0,0c0.27-0.26,0.7-0.21,0.9,0.1c0.78,1.17,2.26,4.24,1.41,9.86
						C190.6,256.82,190.29,257.04,189.96,256.98z"/>
				</g>
			</g>
		</g>
	</g>
</g>
<g id="Character_1">
	<g>
		<g>
			<g>
				<path class="st30" d="M159.75,240.66l3.37-6.27l-8.08-0.85c0,0-1.64,5.96,1.39,7.34L159.75,240.66z"/>
				<path class="st30" d="M160.41,227.86l-2.88,0.21c-1.15,0.08-2.06,0.99-2.16,2.13l-0.3,3.38l8.09,0.76l-0.22-4.26
					C162.85,228.77,161.72,227.77,160.41,227.86z"/>
			</g>
			<path class="st30" d="M136.79,242.8c0,0,5.76,10.27,8.81,10.27c3.05,0,9.46-14.51,9.46-14.51l5.74,0.14
				c0,0-6.8,24.01-15.93,24.01c-7.84,0-14.42-13.99-14.42-13.99L136.79,242.8z"/>
			<path class="st30" d="M160.17,228.77l0.56-4.7c0.04-0.33,0.32-0.58,0.66-0.58l0,0c0.35,0,0.64,0.27,0.66,0.63l0.43,7.46
				L160.17,228.77z"/>
		</g>
		<g>
			<path class="st5" d="M132.73,255.43c0,0,1.58-5.7,7.64-9.08c0,0-1.78-4.52-4.55-7.68c-3.41-3.87-6.98-7.79-12.05-3.8
				C115.53,241.37,132.73,255.43,132.73,255.43z"/>
			<path class="st22" d="M132.73,255.43c0,0,1.58-5.7,7.64-9.08c0,0-1.78-4.52-4.55-7.68c-3.41-3.87-6.98-7.79-12.05-3.8
				C115.53,241.37,132.73,255.43,132.73,255.43z"/>
		</g>
		<path class="st20" d="M134.35,241.9l-1.47-2.45l-6.15,1.42l-3.09,4.51c3.24,5.27,9.08,10.05,9.08,10.05s1.06-3.81,4.75-7.04
			C135.34,247.04,134.35,241.9,134.35,241.9z"/>
		<g>
			<g>
				<g>
					<path class="st5" d="M83.96,259.24c-5.91,3.07-8.24,9.16-8.42,15.52c-0.03,1.19,1.81,1.43,1.85,0.23
						c0.16-5.62,2-11.27,7.31-14.03C85.75,260.4,85.02,258.68,83.96,259.24L83.96,259.24z"/>
				</g>
				<g class="st20">
					<path d="M83.96,259.24c-5.91,3.07-8.24,9.16-8.42,15.52c-0.03,1.19,1.81,1.43,1.85,0.23c0.16-5.62,2-11.27,7.31-14.03
						C85.75,260.4,85.02,258.68,83.96,259.24L83.96,259.24z"/>
				</g>
			</g>
			<g>
				<path class="st5" d="M98.98,239.05l14.11,1.74c5.85,0.72,10.24,5.76,10.08,11.65c0,0.03,0,0.05,0,0.08
					c-0.27,8-2.34,23.93-3.91,31.78c-0.06,0.31-0.15,0.7-0.26,1.13c-1.38,5.6-6.74,9.27-12.46,8.57l-19.74-2.43
					c-4.81-0.59-8.8-4.15-9.75-8.91c-0.04-0.2-0.07-0.38-0.09-0.54c-0.42-4.11,0.31-12.64,2.02-16.4c0.95-2.09,5.19-4.76,6.14-6.85
					c1.47-3.24-0.01-11.02,1.74-14.12c0.58-1.03,2.36-2.45,4.09-3.68C93.28,239.42,96.15,238.7,98.98,239.05z"/>
				<path class="st13" d="M98.98,239.05l14.11,1.74c5.85,0.72,10.24,5.76,10.08,11.65c0,0.03,0,0.05,0,0.08
					c-0.27,8-2.34,23.93-3.91,31.78c-0.06,0.31-0.15,0.7-0.26,1.13c-1.38,5.6-6.74,9.27-12.46,8.57l-19.74-2.43
					c-4.81-0.59-8.8-4.15-9.75-8.91c-0.04-0.2-0.07-0.38-0.09-0.54c-0.42-4.11,0.31-12.64,2.02-16.4c0.95-2.09,5.19-4.76,6.14-6.85
					c1.47-3.24-0.01-11.02,1.74-14.12c0.58-1.03,2.36-2.45,4.09-3.68C93.28,239.42,96.15,238.7,98.98,239.05z"/>
				<path class="st5" d="M93.08,240.78c-0.1-0.2-0.31-0.41-0.58-0.62c-0.53,0.26-1.05,0.56-1.55,0.91
					c-1.73,1.23-3.51,2.65-4.09,3.68c-1.75,3.09-0.27,10.88-1.74,14.12c-0.95,2.09-5.19,4.76-6.14,6.85
					c-1.71,3.76-2.44,12.29-2.02,16.4c0.02,0.16,0.05,0.34,0.09,0.54c0.82,4.14,3.95,7.37,7.92,8.53c0.47-0.16,0.86-0.35,1.13-0.57
					C87.97,289.13,94.85,244.19,93.08,240.78z"/>
				<path class="st31" d="M93.08,240.78c-0.1-0.2-0.31-0.41-0.58-0.62c-0.53,0.26-1.05,0.56-1.55,0.91
					c-1.73,1.23-3.51,2.65-4.09,3.68c-1.75,3.09-0.27,10.88-1.74,14.12c-0.95,2.09-5.19,4.76-6.14,6.85
					c-1.71,3.76-2.44,12.29-2.02,16.4c0.02,0.16,0.05,0.34,0.09,0.54c0.82,4.14,3.95,7.37,7.92,8.53c0.47-0.16,0.86-0.35,1.13-0.57
					C87.97,289.13,94.85,244.19,93.08,240.78z"/>
			</g>
			<path class="st20" d="M77.43,271.84c-0.55,3.69-0.72,7.79-0.47,10.28c0.02,0.16,0.05,0.34,0.09,0.54
				c0.82,4.14,3.95,7.37,7.92,8.53c0.47-0.16,0.86-0.35,1.13-0.57c0.74-0.59,2.28-8.06,3.75-17.05
				C84.41,274.97,79.26,272.77,77.43,271.84z M78.17,276l-0.38-0.61c-0.24-0.38-0.24-0.85,0-1.23l0.38-0.61
				c0.14-0.23,0.47-0.23,0.61,0l0.38,0.61c0.24,0.38,0.24,0.85,0,1.23L78.78,276C78.64,276.22,78.31,276.22,78.17,276z
				 M80.03,284.04l-0.38,0.61c-0.14,0.23-0.47,0.23-0.61,0l-0.38-0.61c-0.24-0.37-0.24-0.85,0-1.23l0.38-0.61
				c0.14-0.23,0.47-0.23,0.61,0l0.38,0.61C80.27,283.19,80.27,283.66,80.03,284.04z M80.04,280.19l-0.48-0.77
				c-0.29-0.47-0.29-1.07,0-1.54l0.48-0.77c0.18-0.28,0.59-0.28,0.77,0l0.48,0.77c0.29,0.47,0.29,1.07,0,1.54l-0.48,0.77
				C80.64,280.48,80.22,280.48,80.04,280.19z M82.92,282.84l-0.48,0.77c-0.18,0.28-0.59,0.28-0.77,0l-0.48-0.77
				c-0.29-0.47-0.29-1.07,0-1.54l0.48-0.77c0.18-0.28,0.59-0.28,0.77,0l0.48,0.77C83.21,281.77,83.21,282.37,82.92,282.84z
				 M82.83,277.74l-0.38-0.61c-0.24-0.38-0.24-0.85,0-1.23l0.38-0.61c0.14-0.23,0.47-0.23,0.61,0l0.38,0.61
				c0.24,0.38,0.24,0.85,0,1.23l-0.38,0.61C83.3,277.97,82.97,277.97,82.83,277.74z M84.24,281.94l-0.48-0.77
				c-0.29-0.47-0.29-1.07,0-1.54l0.48-0.77c0.18-0.28,0.59-0.28,0.77,0l0.48,0.77c0.29,0.47,0.29,1.07,0,1.54l-0.48,0.77
				C84.83,282.23,84.42,282.23,84.24,281.94z M86.4,284.91l-0.38,0.61c-0.14,0.23-0.47,0.23-0.61,0l-0.38-0.61
				c-0.24-0.37-0.24-0.85,0-1.23l0.38-0.61c0.14-0.23,0.47-0.23,0.61,0l0.38,0.61C86.64,284.06,86.64,284.54,86.4,284.91z
				 M86.89,279.14c-0.14,0.23-0.47,0.23-0.61,0l-0.38-0.61c-0.24-0.38-0.24-0.85,0-1.23l0.38-0.61c0.14-0.23,0.47-0.23,0.61,0
				l0.38,0.61c0.24,0.38,0.24,0.85,0,1.23L86.89,279.14z"/>
		</g>
		<path class="st5" d="M95.83,392.89c-0.8,3.94-3.94,15.08-3.96,18.04c-2.48,2.43-4.85,2.37-5.71,0.22
			c-0.86-2.15,1.12-17.82,1.12-17.82L95.83,392.89z"/>
		<path class="st12" d="M95.83,392.89c-0.8,3.94-3.94,15.08-3.96,18.04c-2.48,2.43-4.85,2.37-5.71,0.22
			c-0.86-2.15,1.12-17.82,1.12-17.82L95.83,392.89z"/>
		<path class="st5" d="M95.72,349.64c4.38-28.78,2.81-44.8,4.7-58.35l29.38-0.17c0,5.12-3.81,25.96-16.51,58.19
			c-7.32,18.57-17.7,50.39-17.7,50.39l-9.14-2.48C86.44,397.23,88.46,372.05,95.72,349.64z"/>
		<path class="st11" d="M103.76,415.57c0,0-9.68-2.85-10.39-6.67c-0.07-0.37-0.38-0.62-0.78-0.56l-7.03,1.18
			c-0.34,0.06-0.61,0.3-0.71,0.62l-1.64,5.23c-0.25,0.81,0.34,1.64,1.18,1.66c4.71,0.1,17.72,0.33,19.48-0.17
			C104.22,415.92,103.76,415.57,103.76,415.57z"/>
		<path class="st5" d="M85.7,402.26c1.67,0.67,7.75,1.42,9.07,1.09c1.32-0.33,2.04-5,2.04-5s-9.6-3.16-10.59-2.56
			C85.22,396.38,85.7,402.26,85.7,402.26z"/>
		<path class="st20" d="M128.38,301.11c-5.12,3.28-13.56-13.25-20.26,3.41c-6.01,14.95,2.48,35.32,6,42.65
			C122.1,326.57,126.4,310.83,128.38,301.11z"/>
		<path class="st5" d="M142.84,390.57c1.02,3.88,4.27,14.7,5.55,17.36c-1.16,3.27-4.27,3.33-5.99,1.77
			c-1.72-1.55-7.04-14.97-7.04-14.97L142.84,390.57z"/>
		<path class="st12" d="M142.84,390.57c1.02,3.88,4.27,14.7,5.55,17.36c-1.16,3.27-4.27,3.33-5.99,1.77
			c-1.72-1.55-7.04-14.97-7.04-14.97L142.84,390.57z"/>
		<path class="st5" d="M117.27,346.2c-8.97-27.58-23.05-39.56-22.66-54.85l26.47-0.22c0,0,10.29,38.88,13.53,57.1
			c3.25,18.29,10.26,47.93,10.26,47.93l-7.45,3.62C137.42,399.76,120.19,367.53,117.27,346.2z"/>
		<path class="st11" d="M161.79,406.55c0,0-10.33,1.88-13.16-0.98c-0.28-0.28-0.7-0.35-1.02-0.12l-5.64,4.07
			c-0.26,0.19-0.38,0.53-0.28,0.84l1.4,4.64c0.32,1.05,1.49,1.58,2.49,1.12c4.54-2.11,15.79-7.39,17.05-8.55
			C162.4,406.64,161.79,406.55,161.79,406.55z"/>
		<path class="st5" d="M137.51,404.09c1.75-0.42,7.7-3.68,8.59-4.71c0.89-1.03-1.24-5.26-1.24-5.26s-8.72,2.88-9.39,3.82
			C134.78,398.88,137.51,404.09,137.51,404.09z"/>
		<path class="st5" d="M100.69,231.57c6.87-0.85,16.13-0.93,23.54-0.15c6.67,0.7,11.73,6.36,11.71,13.06
			c-0.04,12.04-3.19,15.91-5.2,34.4c1.66,2.16,0.44,5.27-0.96,5.6c-11.72,2.78-29.14-0.55-34.91-1.91c-2.54-0.6-1.07-3.99-1.07-3.99
			c-0.02-6.24,1.24-5.75,0.9-13.47c-1.04-7.62-0.23-13.36-1.72-23.49C92.27,236.72,95.76,232.18,100.69,231.57z"/>
		<path class="st22" d="M100.69,231.57c6.87-0.85,16.13-0.93,23.54-0.15c6.67,0.7,11.73,6.36,11.71,13.06
			c-0.04,12.04-3.19,15.91-5.2,34.4c1.66,2.16,0.44,5.27-0.96,5.6c-11.72,2.78-29.14-0.55-34.91-1.91c-2.54-0.6-1.07-3.99-1.07-3.99
			c-0.02-6.24,1.24-5.75,0.9-13.47c-1.04-7.62-0.23-13.36-1.72-23.49C92.27,236.72,95.76,232.18,100.69,231.57z"/>
		<path class="st20" d="M100.86,241.9c0.81,7.04-3.69,18.81-6.1,24.5c-0.01-0.4-0.02-0.83-0.04-1.29c-0.65-4.76-0.58-8.78-0.8-13.58
			L100.86,241.9z"/>
		<path class="st5" d="M129.79,291.12c0.4-3.2,0-6.64,0-6.64c0-0.69-32.23-2.02-34.91-1.91c-3.36,0.13-0.5,15.46,2.14,20.68
			C120.38,304.79,129.06,295.15,129.79,291.12z"/>
		<path class="st11" d="M130,283.8c-3.88-0.61-29.22-2.17-36.06-1.7c-0.19,0.01-0.36,0.14-0.42,0.32c-0.28,0.85-0.28,1.7-0.24,2.2
			c0.02,0.25,0.22,0.44,0.48,0.45c2.4,0.05,14.94,0.35,36.16,1.79c0.28,0.02,0.52-0.19,0.53-0.47c0.03-0.67-0.01-1.62-0.03-2.14
			C130.4,284.02,130.23,283.83,130,283.8z"/>
		<g>
			<path class="st5" d="M117.27,237.21l1.05,0.53l1.41-0.86c0,0,2.45,11.49,0,11.84C117.73,249,118.93,242.74,117.27,237.21z"/>
			<path class="st23" d="M117.27,237.21l1.05,0.53l1.41-0.86c0,0,2.45,11.49,0,11.84C117.73,249,118.93,242.74,117.27,237.21z"/>
		</g>
		<g>
			<path class="st5" d="M121,231.15c-5.17-0.35-10.87-0.34-15.91,0.01c-0.43,1.1-0.05,3.44,6.12,7.53c0,0,2.29-3.21,7.51-0.3
				c0,0,4.16-3.31,5.29-0.4C124.01,237.99,125.72,233.16,121,231.15z"/>
			<path class="st6" d="M121,231.15c-5.17-0.35-10.87-0.34-15.91,0.01c-0.43,1.1-0.05,3.44,6.12,7.53c0,0,2.29-3.21,7.51-0.3
				c0,0,4.16-3.31,5.29-0.4C124.01,237.99,125.72,233.16,121,231.15z"/>
		</g>
		<path class="st30" d="M109.68,217.64c0.01,6.35-1.19,10.01-2.61,13.44c-0.14,0.33-0.06,0.71,0.2,0.95
			c2.42,2.19,11.16,4.84,11.16,4.84s3.89-3.09,2.71-4.84c-0.17-0.25-0.4-0.45-0.65-0.6c-3.4-2.02-2.72-3.92-1.77-5.55L109.68,217.64
			z"/>
		<path class="st20" d="M109.68,217.64l9.04,8.24c-0.54,0.91-0.73,2.17-0.19,3.45c-1.78,0.06-3.61-0.51-5.2-1.87
			c-2.33-1.98-3.12-4.32-3.7-7.62C109.67,219.15,109.68,218.42,109.68,217.64z"/>
		<path class="st30" d="M106.99,213.39c0.4,6.07-0.46,7.04,2.62,10.12c4.64,4.63,12.19,5.51,13.26-0.64
			c0.96-5.54,1.49-15.57-4.47-17.91C112.53,202.65,106.59,207.32,106.99,213.39z"/>
		<path class="st9" d="M121.05,220.78c0,0-1.68-0.56-6.49-1.11c0.44,1.39,1.4,2.6,3.86,2.86
			C120.88,222.79,121.05,220.78,121.05,220.78z"/>
		<path class="st11" d="M114.33,213.97c0.02,0.52,0.26,0.56,0.6,0.54s0.65-0.09,0.63-0.61c-0.02-0.52-0.31-0.92-0.65-0.91
			C114.57,213.02,114.31,213.46,114.33,213.97z"/>
		<path class="st11" d="M120.67,214.35c0.02,0.52,0.26,0.56,0.6,0.54c0.34-0.02,0.65-0.09,0.63-0.61c-0.02-0.52-0.31-0.92-0.65-0.91
			C120.9,213.4,120.65,213.83,120.67,214.35z"/>
		<path class="st32" d="M119.69,214.12c0,0,0.86,2.3,1.84,3.42c-0.72,0.65-1.91,0.34-1.91,0.34L119.69,214.12z"/>
		<path class="st11" d="M113.37,211.65c-0.05-0.01-0.1-0.03-0.14-0.07c-0.12-0.11-0.13-0.3-0.02-0.43c1.13-1.26,2.53-1.06,2.58-1.06
			c0.17,0.02,0.28,0.18,0.25,0.35c-0.03,0.17-0.18,0.28-0.35,0.26l0,0c-0.05-0.01-1.13-0.15-2.04,0.86
			C113.58,211.64,113.47,211.68,113.37,211.65z"/>
		<path class="st11" d="M123.75,213.34c-0.1,0.02-0.2-0.01-0.27-0.09c-0.91-0.98-2-0.81-2.04-0.8c-0.17,0.03-0.32-0.08-0.35-0.25
			c-0.03-0.17,0.08-0.32,0.25-0.35c0.06-0.01,1.45-0.24,2.59,0.99c0.11,0.12,0.11,0.32-0.02,0.43
			C123.87,213.3,123.81,213.33,123.75,213.34z"/>
		<path class="st11" d="M106.99,216.81c0,0,1.99,0.58,2.07-2.39c0.08-2.97,3.43-4.71,3.29-6.94c-0.14-2.23,5.4,1.56,9.89,0
			c1.38-0.48,1.59-7.17-3.7-4.53c0,0-1.14-5.3-5.22-1.11c0,0-3.15-2.96-4.65,1.98c0,0-4.31-1.08-2.76,3.73c0,0-3.04,0.12-1.44,3.89
			c0,0-2.51,1.22,0,4.3L106.99,216.81z"/>
		<path class="st30" d="M104.23,217.45c0.6,1.46,1.72,2.49,2.8,2.95c1.63,0.7,2.52-0.89,2.14-2.71c-0.35-1.64-1.61-3.98-3.27-3.9
			C104.26,213.88,103.54,215.79,104.23,217.45z"/>
		<g>
			<g>
				<path class="st11" d="M123.45,287.05l-3.72-0.08l0.02-0.87l3.72,0.08c0.2,0,0.37-0.16,0.38-0.36l0.05-2.3
					c0-0.2-0.16-0.37-0.36-0.38l-3.72-0.08l0.02-0.87l3.72,0.08c0.69,0.01,1.23,0.58,1.22,1.27l-0.05,2.3
					C124.71,286.52,124.14,287.06,123.45,287.05z"/>
			</g>
			<g class="st21">
				<path class="st9" d="M123.45,287.05l-3.72-0.08l0.02-0.87l3.72,0.08c0.2,0,0.37-0.16,0.38-0.36l0.05-2.3
					c0-0.2-0.16-0.37-0.36-0.38l-3.72-0.08l0.02-0.87l3.72,0.08c0.69,0.01,1.23,0.58,1.22,1.27l-0.05,2.3
					C124.71,286.52,124.14,287.06,123.45,287.05z"/>
			</g>
		</g>
		<g>
			<circle class="st5" cx="161.38" cy="208.3" r="13.4"/>
			<g>
				<g class="st10">
					<g>
						<path d="M161.27,220.39L161.27,220.39c0-6.62-5.36-11.99-11.98-11.98l0,0c0-0.72,0.62-1.29,1.34-1.22
							c6.25,0.63,11.23,5.61,11.86,11.86C162.56,219.76,161.99,220.38,161.27,220.39z"/>
					</g>
					<g>
						<path d="M172.12,209.41c-6.25-0.63-11.23-5.61-11.86-11.86c-0.07-0.72,0.5-1.34,1.22-1.34h0c0,6.62,5.36,11.99,11.98,11.98
							l0,0C173.46,208.91,172.84,209.48,172.12,209.41z"/>
					</g>
				</g>
				<g class="st10">
					<path d="M169.67,216.59L169.67,216.59c-0.25,0.25-0.66,0.25-0.91,0l-15.69-15.69c-0.25-0.25-0.25-0.66,0-0.91l0,0
						c0.25-0.25,0.66-0.25,0.91,0l15.69,15.69C169.92,215.94,169.92,216.34,169.67,216.59z"/>
				</g>
				<g class="st10">
					<g>
						<path d="M157.05,213.53l-2.86,2.86c-0.25,0.25-0.66,0.25-0.91,0l0,0c-0.25-0.25-0.25-0.66,0-0.91l2.86-2.86
							c0.25-0.25,0.66-0.25,0.91,0l0,0C157.3,212.87,157.3,213.27,157.05,213.53z"/>
					</g>
					<g>
						<path d="M169.47,201.11l-2.86,2.86c-0.25,0.25-0.66,0.25-0.91,0l0,0c-0.25-0.25-0.25-0.66,0-0.91l2.86-2.86
							c0.25-0.25,0.66-0.25,0.91,0l0,0C169.72,200.46,169.72,200.86,169.47,201.11z"/>
					</g>
				</g>
			</g>
			<g>
				<g>
					<g>
						<path class="st5" d="M141.9,212.46c-0.08,0.17-0.23,0.3-0.41,0.34l-0.79,0.17c-0.29-1.36,1.39-2.83,5.14-4.49
							c0.3-0.13,0.66,0.01,0.78,0.31l0,0c0.13,0.3-0.02,0.64-0.31,0.77C143.24,210.92,142.14,211.94,141.9,212.46z"/>
					</g>
					<g>
						<path class="st5" d="M145.58,214.33c-0.02,0.33-0.31,0.59-0.64,0.56c-0.43-0.04-0.94-0.09-1.1-0.12
							c-0.34-0.05-0.56-0.37-0.49-0.7l0,0c0.06-0.3,0.35-0.51,0.66-0.46c0.15,0.02,0.63,0.07,1.04,0.11
							C145.36,213.74,145.6,214.01,145.58,214.33L145.58,214.33z"/>
					</g>
					<g>
						<path class="st5" d="M162.53,213.07c-5.36,1.14-10.47,1.81-14.45,1.9c-0.33,0.01-0.59-0.26-0.59-0.59l0,0
							c0-0.32,0.25-0.58,0.57-0.59c3.92-0.09,8.94-0.75,14.23-1.87c12.94-2.75,19.24-6.39,18.99-7.57c-0.04-0.21-0.44-0.5-1.39-0.73
							c-0.3-0.07-0.5-0.37-0.44-0.67l0,0c0.06-0.34,0.4-0.55,0.73-0.47c1.36,0.33,2.1,0.86,2.26,1.63
							C183.14,207.43,170.91,211.29,162.53,213.07z"/>
					</g>
					<g>
						<path class="st5" d="M177.22,203.29c-0.22-0.01-0.45-0.02-0.69-0.02c-0.32-0.01-0.58-0.27-0.58-0.59v0
							c0-0.33,0.27-0.6,0.6-0.59c0.25,0,0.5,0.01,0.74,0.02c0.33,0.01,0.58,0.3,0.56,0.63l0,0
							C177.82,203.07,177.54,203.31,177.22,203.29z"/>
					</g>
					<g>
						<path class="st5" d="M143.22,216.19c-0.1,0.34-0.49,0.52-0.82,0.37c-0.7-0.32-1.1-0.75-1.22-1.28l0.8-0.17
							c0.18-0.04,0.37,0.01,0.51,0.13c0.15,0.14,0.44,0.29,0.89,0.42L143.22,216.19z"/>
					</g>
					<g>
						<path class="st5" d="M153.34,216.95c-2.76,0.29-5.21,0.4-7.15,0.3c-0.33-0.02-0.57-0.31-0.55-0.63l0,0
							c0.02-0.32,0.3-0.56,0.62-0.54c1.87,0.09,4.25-0.01,6.95-0.3c0.32-0.03,0.62,0.2,0.65,0.52l0,0
							C153.9,216.62,153.67,216.92,153.34,216.95z"/>
					</g>
					<g>
						<path class="st5" d="M163.02,215.38c-1.08,0.23-2.16,0.44-3.24,0.64c-0.32,0.06-0.63-0.16-0.68-0.48l0,0
							c-0.06-0.32,0.15-0.62,0.47-0.68c1.07-0.19,2.14-0.4,3.21-0.63c4.13-0.88,8.02-1.95,11.29-3.13c0.3-0.11,0.63,0.05,0.74,0.35
							l0,0c0.11,0.31-0.04,0.65-0.35,0.76C171.14,213.4,167.2,214.49,163.02,215.38z"/>
					</g>
					<g>
						<path class="st5" d="M176.98,210.6L176.98,210.6c-0.13-0.3,0.01-0.64,0.31-0.77c3.08-1.37,4.19-2.38,4.43-2.91
							c0.08-0.17,0.23-0.3,0.41-0.34l0.79-0.17c0.29,1.36-1.4,2.83-5.16,4.5C177.46,211.04,177.1,210.9,176.98,210.6z"/>
					</g>
				</g>
				<g class="st33">
					<g>
						<path class="st9" d="M141.9,212.46c-0.08,0.17-0.23,0.3-0.41,0.34l-0.79,0.17c-0.29-1.36,1.39-2.83,5.14-4.49
							c0.3-0.13,0.66,0.01,0.78,0.31l0,0c0.13,0.3-0.02,0.64-0.31,0.77C143.24,210.92,142.14,211.94,141.9,212.46z"/>
					</g>
					<g>
						<path class="st9" d="M145.58,214.33c-0.02,0.33-0.31,0.59-0.64,0.56c-0.43-0.04-0.94-0.09-1.1-0.12
							c-0.34-0.05-0.56-0.37-0.49-0.7l0,0c0.06-0.3,0.35-0.51,0.66-0.46c0.15,0.02,0.63,0.07,1.04,0.11
							C145.36,213.74,145.6,214.01,145.58,214.33L145.58,214.33z"/>
					</g>
					<g>
						<path class="st9" d="M162.53,213.07c-5.36,1.14-10.47,1.81-14.45,1.9c-0.33,0.01-0.59-0.26-0.59-0.59l0,0
							c0-0.32,0.25-0.58,0.57-0.59c3.92-0.09,8.94-0.75,14.23-1.87c12.94-2.75,19.24-6.39,18.99-7.57c-0.04-0.21-0.44-0.5-1.39-0.73
							c-0.3-0.07-0.5-0.37-0.44-0.67l0,0c0.06-0.34,0.4-0.55,0.73-0.47c1.36,0.33,2.1,0.86,2.26,1.63
							C183.14,207.43,170.91,211.29,162.53,213.07z"/>
					</g>
					<g>
						<path class="st9" d="M177.22,203.29c-0.22-0.01-0.45-0.02-0.69-0.02c-0.32-0.01-0.58-0.27-0.58-0.59v0
							c0-0.33,0.27-0.6,0.6-0.59c0.25,0,0.5,0.01,0.74,0.02c0.33,0.01,0.58,0.3,0.56,0.63l0,0
							C177.82,203.07,177.54,203.31,177.22,203.29z"/>
					</g>
					<g>
						<path class="st9" d="M143.22,216.19c-0.1,0.34-0.49,0.52-0.82,0.37c-0.7-0.32-1.1-0.75-1.22-1.28l0.8-0.17
							c0.18-0.04,0.37,0.01,0.51,0.13c0.15,0.14,0.44,0.29,0.89,0.42L143.22,216.19z"/>
					</g>
					<g>
						<path class="st9" d="M153.34,216.95c-2.76,0.29-5.21,0.4-7.15,0.3c-0.33-0.02-0.57-0.31-0.55-0.63l0,0
							c0.02-0.32,0.3-0.56,0.62-0.54c1.87,0.09,4.25-0.01,6.95-0.3c0.32-0.03,0.62,0.2,0.65,0.52l0,0
							C153.9,216.62,153.67,216.92,153.34,216.95z"/>
					</g>
					<g>
						<path class="st9" d="M163.02,215.38c-1.08,0.23-2.16,0.44-3.24,0.64c-0.32,0.06-0.63-0.16-0.68-0.48l0,0
							c-0.06-0.32,0.15-0.62,0.47-0.68c1.07-0.19,2.14-0.4,3.21-0.63c4.13-0.88,8.02-1.95,11.29-3.13c0.3-0.11,0.63,0.05,0.74,0.35
							l0,0c0.11,0.31-0.04,0.65-0.35,0.76C171.14,213.4,167.2,214.49,163.02,215.38z"/>
					</g>
					<g>
						<path class="st9" d="M176.98,210.6L176.98,210.6c-0.13-0.3,0.01-0.64,0.31-0.77c3.08-1.37,4.19-2.38,4.43-2.91
							c0.08-0.17,0.23-0.3,0.41-0.34l0.79-0.17c0.29,1.36-1.4,2.83-5.16,4.5C177.46,211.04,177.1,210.9,176.98,210.6z"/>
					</g>
				</g>
			</g>
		</g>
		<path class="st11" d="M104.33,230.78c-0.73,0.05-1.22,0.76-1.01,1.46c1.99,6.79,10.48,37,4.8,40.62
			c-5.2,3.31-14.96,4.09-18.44,4.26c-0.75,0.04-1.38,0.58-1.53,1.32l-0.4,2.05c-0.21,1.06,0.65,2.04,1.73,1.96
			c5.86-0.43,21.87-2.22,23.99-9.19c2.35-7.73-5.62-36.29-7.17-41.71c-0.15-0.52-0.64-0.86-1.18-0.82L104.33,230.78z"/>
		<g>
			<g>
				<path class="st30" d="M103.52,272.02l6.45-2.05l0.19,8.12c0,0-6.07,1.15-7.2-1.98L103.52,272.02z"/>
				<path class="st30" d="M115.99,273.37l-0.44,2.85c-0.18,1.14-1.15,1.98-2.3,1.98l-3.39,0.03l-0.1-8.12l4.23,0.57
					C115.29,270.85,116.2,272.07,115.99,273.37z"/>
			</g>
			<path class="st30" d="M95.65,250.63c0,0-8.98,11.71-8.78,13.91c0.2,2.2,19.16,7.31,19.16,7.31l-1.32,5.31
				c0,0-28.36-1.4-28.36-11.32c0-7.62,13.16-23.94,13.16-23.94L95.65,250.63z"/>
			<g>
				<path class="st5" d="M86.06,244c0,0,4.61,2.81,9.12,8.82c0,0,3.07-3.13,5.78-6.35c3.32-3.95,6.65-8.08,1.94-12.48
					C95.23,226.82,86.06,244,86.06,244z"/>
				<path class="st22" d="M86.06,244c0,0,4.61,2.81,9.12,8.82c0,0,3.07-3.13,5.78-6.35c3.32-3.95,6.65-8.08,1.94-12.48
					C95.23,226.82,86.06,244,86.06,244z"/>
			</g>
		</g>
		<g class="st13">
			<path class="st9" d="M94.83,250.39c-2.26-4-5.64-6.11-6.88-6.8c-0.27-0.15-0.38-0.48-0.26-0.77l0,0
				c0.14-0.32,0.52-0.45,0.83-0.29c1.38,0.75,4.94,2.99,7.36,7.27c0.17,0.29,0.05,0.67-0.25,0.83l0,0
				C95.34,250.79,94.99,250.67,94.83,250.39z"/>
		</g>
		<g class="st13">
			<path class="st9" d="M101.08,245.35L101.08,245.35c-0.28-0.18-0.35-0.55-0.17-0.83c3.35-5.39,2.32-8.65,1.77-9.75
				c-0.13-0.26-0.06-0.56,0.17-0.74l0,0c0.3-0.23,0.73-0.14,0.9,0.19c0.69,1.39,1.81,5.1-1.82,10.94
				C101.74,245.45,101.36,245.53,101.08,245.35z"/>
		</g>
		<g class="st13">
			<path class="st9" d="M136.84,247.03c-0.23,0-0.45-0.04-0.64-0.15c-0.55-0.28-0.81-0.89-0.76-1.81c0.2-3.67-1.86-6.39-2.74-7.37
				c-0.21-0.23-0.21-0.58,0-0.81l0,0c0.24-0.26,0.65-0.26,0.88,0c1,1.11,3.27,4.11,3.05,8.25c-0.03,0.5,0.08,0.66,0.1,0.67
				c0.2,0.11,0.87-0.17,1.51-0.6c0.26-0.17,0.61-0.13,0.81,0.12l0,0c0.22,0.27,0.17,0.67-0.12,0.87
				C138.39,246.58,137.57,247.03,136.84,247.03z"/>
		</g>
	</g>
</g>
</svg>
